<?xml version="1.0" encoding="UTF-8"?>
<!DOCTYPE svg PUBLIC "-//W3C//DTD SVG 1.1//EN" "http://www.w3.org/Graphics/SVG/1.1/DTD/svg11.dtd">
<!-- Creator: CorelDRAW 2018 (64 Bit) -->
<svg xmlns="http://www.w3.org/2000/svg" xml:space="preserve" width="297mm" height="210mm" version="1.1" style="shape-rendering:geometricPrecision; text-rendering:geometricPrecision; image-rendering:optimizeQuality; fill-rule:evenodd; clip-rule:evenodd" viewBox="0 0 29700 21000" 
  xmlns:xlink="http://www.w3.org/1999/xlink">
  <defs>
    <style type="text/css">
      <![CDATA[
    .fil3 {fill:#018241}
    .fil1 {fill:#019EC1}
    .fil0 {fill:#2A2870}
    .fil2 {fill:#7B3CCB}
    .fil4 {fill:#CE0171}
    .fil5 {fill:#D1B312}
    .fil6 {fill:#FEFEFE;fill-rule:nonzero}
   ]]>
    </style>
  </defs>
  <g id="Capa_x0020_1">
    <metadata id="CorelCorpID_0Corel-Layer"/>
    <polygon class="fil0" points="7380.11,12251.05 7332.68,12251.05 7332.68,12274.76 7285.24,12274.76 7285.24,12298.48 7237.81,12298.48 7237.81,12322.19 7214.1,12322.19 7214.1,12345.91 7166.66,12345.91 7166.66,12369.63 7119.23,12369.63 7119.23,12393.35 7071.8,12393.35 7071.8,12417.07 7048.08,12417.07 7048.08,12440.77 7000.64,12440.77 7000.64,12464.49 6953.21,12464.49 6953.21,12488.21 6905.78,12488.21 6905.78,12511.93 6858.35,12511.93 6858.35,12535.65 6834.63,12535.65 6834.63,12559.35 6787.2,12559.35 6787.2,12583.07 6739.76,12583.07 6739.76,12606.79 6692.33,12606.79 6692.33,12630.51 6668.61,12630.51 6668.61,12654.23 6621.18,12654.23 6621.18,12677.94 6573.75,12677.94 6573.75,12701.66 6526.31,12701.66 6526.31,12725.37 6502.6,12725.37 6502.6,12749.09 6455.17,12749.09 6455.17,12772.81 6407.73,12772.81 6407.73,12796.53 6360.3,12796.53 6360.3,12820.25 6312.87,12820.25 6312.87,12843.95 6289.15,12843.95 6289.15,12867.67 6241.72,12867.67 6241.72,12891.39 6194.28,12891.39 6194.28,12915.11 6146.85,12915.11 6146.85,12938.84 6123.13,12938.84 6123.13,12962.54 6075.7,12962.54 6075.7,12986.25 6028.27,12986.25 6028.27,13009.97 5980.83,13009.97 5980.83,13033.69 5957.12,13033.69 5957.12,13057.41 5909.69,13057.41 5909.69,13081.12 5862.25,13081.12 5862.25,13104.84 5814.82,13104.84 5814.82,13128.55 5767.39,13128.55 5767.39,13152.27 5743.67,13152.27 5743.67,13175.99 5696.23,13175.99 5696.23,13199.71 5648.81,13199.71 5648.81,13223.43 5601.37,13223.43 5601.37,13247.14 5577.65,13247.14 5577.65,13270.85 5530.22,13270.85 5530.22,13294.57 5482.79,13294.57 5482.79,13318.29 5435.35,13318.29 5435.35,13342.02 5411.63,13342.02 5411.63,13365.72 5364.21,13365.72 5364.21,13389.44 5316.77,13389.44 5316.77,13413.15 5269.33,13413.15 5269.33,13436.87 5245.63,13436.87 5245.63,13460.59 5198.19,13460.59 5198.19,13484.3 5150.75,13484.3 5150.75,13508.02 5103.33,13508.02 5103.33,13531.74 5055.89,13531.74 5055.89,13555.45 5032.17,13555.45 5032.17,13579.17 4984.74,13579.17 4984.74,13602.89 4937.31,13602.89 4937.31,13626.61 4889.87,13626.61 4889.87,13650.32 4866.15,13650.32 4866.15,13674.04 4818.73,13674.04 4818.73,13697.75 4771.29,13697.75 4771.29,13721.47 4723.86,13721.47 4723.86,13745.2 4676.43,13745.2 4676.43,13768.9 4652.71,13768.9 4652.71,13792.62 4605.27,13792.62 4605.27,13816.34 4557.84,13816.34 4557.84,13840.05 4510.41,13840.05 4510.41,13863.77 4462.97,13863.77 4462.97,17207.8 4510.41,17207.8 4510.41,17231.51 4557.84,17231.51 4557.84,17255.23 4605.27,17255.23 4605.27,17278.95 4628.99,17278.95 4628.99,17302.67 4676.43,17302.67 4676.43,17326.39 4723.86,17326.39 4723.86,17350.1 4771.29,17350.1 4771.29,17373.82 4795.01,17373.82 4795.01,17397.53 4842.44,17397.53 4842.44,17421.25 4889.87,17421.25 4889.87,17444.97 4937.31,17444.97 4937.31,17468.69 4961.03,17468.69 4961.03,17492.41 5008.45,17492.41 5008.45,17516.11 5055.89,17516.11 5055.89,17539.83 5103.33,17539.83 5103.33,17563.55 5150.75,17563.55 5150.75,17587.27 5174.47,17587.27 5174.47,17611 5221.91,17611 5221.91,17634.69 5269.33,17634.69 5269.33,17658.41 5316.77,17658.41 5316.77,17682.13 5340.49,17682.13 5340.49,17705.85 5387.92,17705.85 5387.92,17729.57 5435.35,17729.57 5435.35,17753.28 5482.79,17753.28 5482.79,17776.99 5530.22,17776.99 5530.22,17800.71 5553.93,17800.71 5553.93,17824.43 5601.37,17824.43 5601.37,17848.15 5648.81,17848.15 5648.81,17871.87 5696.23,17871.87 5696.23,17895.59 5719.95,17895.59 5719.95,17919.29 5767.39,17919.29 5767.39,17943.01 5814.82,17943.01 5814.82,17966.73 5862.25,17966.73 5862.25,17990.45 5885.97,17990.45 5885.97,18014.18 5933.4,18014.18 5933.4,18037.88 5980.83,18037.88 5980.83,18061.59 6028.27,18061.59 6028.27,18085.31 6051.99,18085.31 6051.99,18109.03 6099.42,18109.03 6099.42,18132.75 6146.85,18132.75 6146.85,18156.46 6194.28,18156.46 6194.28,18180.18 6241.72,18180.18 6241.72,18203.89 6265.43,18203.89 6265.43,18227.61 6312.87,18227.61 6312.87,18251.33 6360.3,18251.33 6360.3,18275.05 6407.73,18275.05 6407.73,18298.77 6431.45,18298.77 6431.45,18322.48 6478.88,18322.48 6478.88,18346.19 6526.31,18346.19 6526.31,18369.91 6573.75,18369.91 6573.75,18393.63 6597.46,18393.63 6597.46,18417.36 6644.9,18417.36 6644.9,18441.06 6692.33,18441.06 6692.33,18464.78 6739.76,18464.78 6739.76,18488.49 6787.2,18488.49 6787.2,18512.21 6810.91,18512.21 6810.91,18535.93 6858.35,18535.93 6858.35,18559.64 6905.78,18559.64 6905.78,18583.36 6953.21,18583.36 6953.21,18607.08 6976.93,18607.08 6976.93,18630.79 7024.36,18630.79 7024.36,18654.51 7071.8,18654.51 7071.8,18678.23 7119.23,18678.23 7119.23,18701.95 7142.94,18701.95 7142.94,18725.66 7190.38,18725.66 7190.38,18749.38 7237.81,18749.38 7237.81,18773.09 7285.24,18773.09 7285.24,18796.81 7332.68,18796.81 7332.68,18820.54 7356.4,18820.54 7356.4,18844.24 7451.26,18844.24 7451.26,18820.54 7498.7,18820.54 7498.7,18796.81 7522.41,18796.81 7522.41,18773.09 7569.84,18773.09 7569.84,18749.38 7617.28,18749.38 7617.28,18725.66 7664.7,18725.66 7664.7,18701.95 7688.42,18701.95 7688.42,18678.23 7735.86,18678.23 7735.86,18654.51 7783.3,18654.51 7783.3,18630.79 7830.72,18630.79 7830.72,18607.08 7878.16,18607.08 7878.16,18583.36 7901.88,18583.36 7901.88,18559.64 7949.3,18559.64 7949.3,18535.93 7996.74,18535.93 7996.74,18512.21 8044.18,18512.21 8044.18,18488.49 8067.88,18488.49 8067.88,18464.78 8115.32,18464.78 8115.32,18441.06 8162.76,18441.06 8162.76,18417.36 8210.18,18417.36 8210.18,18393.63 8233.9,18393.63 8233.9,18369.91 8281.34,18369.91 8281.34,18346.19 8328.77,18346.19 8328.77,18322.48 8376.2,18322.48 8376.2,18298.77 8423.64,18298.77 8423.64,18275.05 8447.36,18275.05 8447.36,18251.33 8494.78,18251.33 8494.78,18227.61 8542.22,18227.61 8542.22,18203.89 8589.66,18203.89 8589.66,18180.18 8613.37,18180.18 8613.37,18156.46 8660.8,18156.46 8660.8,18132.75 8708.24,18132.75 8708.24,18109.03 8755.67,18109.03 8755.67,18085.31 8779.38,18085.31 8779.38,18061.59 8826.82,18061.59 8826.82,18037.88 8874.25,18037.88 8874.25,18014.18 8921.68,18014.18 8921.68,17990.45 8945.4,17990.45 8945.4,17966.73 8992.84,17966.73 8992.84,17943.01 9040.27,17943.01 9040.27,17919.29 9087.7,17919.29 9087.7,17895.59 9135.13,17895.59 9135.13,17871.87 9158.85,17871.87 9158.85,17848.15 9206.28,17848.15 9206.28,17824.43 9253.72,17824.43 9253.72,17800.71 9301.15,17800.71 9301.15,17776.99 9324.87,17776.99 9324.87,17753.28 9372.3,17753.28 9372.3,17729.57 9419.73,17729.57 9419.73,17705.85 9467.17,17705.85 9467.17,17682.13 9514.6,17682.13 9514.6,17658.41 9538.31,17658.41 9538.31,17634.69 9585.75,17634.69 9585.75,17611 9633.18,17611 9633.18,17587.27 9680.61,17587.27 9680.61,17563.55 9704.33,17563.55 9704.33,17539.83 9751.77,17539.83 9751.77,17516.11 9799.19,17516.11 9799.19,17492.41 9846.63,17492.41 9846.63,17468.69 9870.35,17468.69 9870.35,17444.97 9917.78,17444.97 9917.78,17421.25 9965.21,17421.25 9965.21,17397.53 10012.65,17397.53 10012.65,17373.82 10036.36,17373.82 10036.36,17350.1 10083.79,17350.1 10083.79,17326.39 10131.23,17326.39 10131.23,17302.67 10178.66,17302.67 10178.66,17278.95 10226.09,17278.95 10226.09,17255.23 10249.81,17255.23 10249.81,17231.51 10297.25,17231.51 10297.25,17207.8 10344.67,17207.8 10344.67,13863.77 10297.25,13863.77 10297.25,13840.05 10249.81,13840.05 10249.81,13816.34 10202.37,13816.34 10202.37,13792.62 10154.95,13792.62 10154.95,13768.9 10131.23,13768.9 10131.23,13745.2 10083.79,13745.2 10083.79,13721.47 10036.36,13721.47 10036.36,13697.75 9988.93,13697.75 9988.93,13674.04 9965.21,13674.04 9965.21,13650.32 9917.78,13650.32 9917.78,13626.61 9870.35,13626.61 9870.35,13602.89 9822.91,13602.89 9822.91,13579.17 9799.19,13579.17 9799.19,13555.45 9751.77,13555.45 9751.77,13531.74 9704.33,13531.74 9704.33,13508.02 9656.9,13508.02 9656.9,13484.3 9609.47,13484.3 9609.47,13460.59 9585.75,13460.59 9585.75,13436.87 9538.31,13436.87 9538.31,13413.15 9490.88,13413.15 9490.88,13389.44 9443.45,13389.44 9443.45,13365.72 9419.73,13365.72 9419.73,13342.02 9372.3,13342.02 9372.3,13318.29 9324.87,13318.29 9324.87,13294.57 9277.43,13294.57 9277.43,13270.85 9230,13270.85 9230,13247.14 9206.28,13247.14 9206.28,13223.43 9158.85,13223.43 9158.85,13199.71 9111.42,13199.71 9111.42,13175.99 9063.98,13175.99 9063.98,13152.27 9040.27,13152.27 9040.27,13128.55 8992.84,13128.55 8992.84,13104.84 8945.4,13104.84 8945.4,13081.12 8897.97,13081.12 8897.97,13057.41 8874.25,13057.41 8874.25,13033.69 8826.82,13033.69 8826.82,13009.97 8779.38,13009.97 8779.38,12986.25 8731.95,12986.25 8731.95,12962.54 8708.24,12962.54 8708.24,12938.84 8660.8,12938.84 8660.8,12915.11 8613.37,12915.11 8613.37,12891.39 8565.94,12891.39 8565.94,12867.67 8542.22,12867.67 8542.22,12843.95 8494.78,12843.95 8494.78,12820.25 8447.36,12820.25 8447.36,12796.53 8399.92,12796.53 8399.92,12772.81 8352.48,12772.81 8352.48,12749.09 8328.77,12749.09 8328.77,12725.37 8281.34,12725.37 8281.34,12701.66 8233.9,12701.66 8233.9,12677.94 8186.48,12677.94 8186.48,12654.23 8162.76,12654.23 8162.76,12630.51 8115.32,12630.51 8115.32,12606.79 8067.88,12606.79 8067.88,12583.07 8020.46,12583.07 8020.46,12559.35 7973.02,12559.35 7973.02,12535.65 7949.3,12535.65 7949.3,12511.93 7901.88,12511.93 7901.88,12488.21 7854.44,12488.21 7854.44,12464.49 7807,12464.49 7807,12440.77 7783.3,12440.77 7783.3,12417.07 7735.86,12417.07 7735.86,12393.35 7688.42,12393.35 7688.42,12369.63 7641,12369.63 7641,12345.91 7617.28,12345.91 7617.28,12322.19 7569.84,12322.19 7569.84,12298.48 7522.41,12298.48 7522.41,12274.76 7474.98,12274.76 7474.98,12251.05 7427.54,12251.05 7427.54,12227.33 7380.11,12227.33 "/>
    <polygon class="fil1" points="7308.96,1436.3 7285.24,1436.3 7285.24,1460.02 7237.81,1460.02 7237.81,1483.73 7190.38,1483.73 7190.38,1507.45 7142.94,1507.45 7142.94,1531.17 7119.23,1531.17 7119.23,1554.89 7048.08,1554.89 7048.08,1578.6 7024.36,1578.6 7024.36,1602.31 6976.93,1602.31 6976.93,1626.03 6953.21,1626.03 6953.21,1649.75 6905.78,1649.75 6905.78,1673.47 6858.35,1673.47 6858.35,1697.19 6810.91,1697.19 6810.91,1720.9 6787.2,1720.9 6787.2,1744.62 6739.76,1744.62 6739.76,1768.33 6716.05,1768.33 6716.05,1792.05 6644.9,1792.05 6644.9,1815.77 6621.18,1815.77 6621.18,1839.49 6550.03,1839.49 6550.03,1863.2 6526.31,1863.2 6526.31,1886.91 6478.88,1886.91 6478.88,1910.63 6431.45,1910.63 6431.45,1934.35 6384.01,1934.35 6384.01,1958.07 6336.58,1958.07 6336.58,1981.79 6312.87,1981.79 6312.87,2005.49 6289.15,2005.49 6289.15,2029.21 6218,2029.21 6218,2052.93 6194.28,2052.93 6194.28,2076.65 6146.85,2076.65 6146.85,2100.37 6099.42,2100.37 6099.42,2124.1 6051.99,2124.1 6051.99,2147.8 6028.27,2147.8 6028.27,2171.51 5980.83,2171.51 5980.83,2195.23 5933.4,2195.23 5933.4,2218.95 5885.97,2218.95 5885.97,2242.67 5862.25,2242.67 5862.25,2266.38 5814.82,2266.38 5814.82,2290.09 5767.39,2290.09 5767.39,2313.81 5719.95,2313.81 5719.95,2337.53 5696.23,2337.53 5696.23,2361.25 5648.81,2361.25 5648.81,2384.97 5601.37,2384.97 5601.37,2408.69 5553.93,2408.69 5553.93,2432.39 5530.22,2432.39 5530.22,2456.11 5482.79,2456.11 5482.79,2479.83 5435.35,2479.83 5435.35,2503.55 5387.92,2503.55 5387.92,2527.28 5364.21,2527.28 5364.21,2550.98 5293.05,2550.98 5293.05,2574.69 5269.33,2574.69 5269.33,2598.41 5221.91,2598.41 5221.91,2622.13 5174.47,2622.13 5174.47,2645.85 5150.75,2645.85 5150.75,2669.57 5127.04,2669.57 5127.04,2693.28 5055.89,2693.28 5055.89,2716.99 5008.45,2716.99 5008.45,2740.71 4961.03,2740.71 4961.03,2764.43 4937.31,2764.43 4937.31,2788.15 4889.87,2788.15 4889.87,2811.86 4842.44,2811.86 4842.44,2835.58 4771.29,2835.58 4771.29,2883.01 4723.86,2883.01 4723.86,2906.73 4676.43,2906.73 4676.43,2930.46 4628.99,2930.46 4628.99,2954.16 4605.27,2954.16 4605.27,2977.88 4557.84,2977.88 4557.84,3001.59 4510.41,3001.59 4510.41,3025.31 4462.97,3025.31 4462.97,3049.03 4439.26,3049.03 4439.26,6369.34 4462.97,6369.34 4462.97,6393.06 4510.41,6393.06 4510.41,6416.78 4534.13,6416.78 4534.13,6440.49 4581.56,6440.49 4581.56,6464.21 4628.99,6464.21 4628.99,6487.93 4652.71,6487.93 4652.71,6511.64 4700.14,6511.64 4700.14,6535.36 4747.57,6535.36 4747.57,6559.07 4795.01,6559.07 4795.01,6582.79 4842.44,6582.79 4842.44,6606.51 4866.15,6606.51 4866.15,6630.23 4913.59,6630.23 4913.59,6653.94 4961.03,6653.94 4961.03,6677.65 5008.45,6677.65 5008.45,6701.37 5032.17,6701.37 5032.17,6725.09 5103.33,6725.09 5103.33,6748.81 5127.04,6748.81 5127.04,6772.53 5174.47,6772.53 5174.47,6796.24 5221.91,6796.24 5221.91,6819.96 5269.33,6819.96 5269.33,6843.67 5293.05,6843.67 5293.05,6867.39 5340.49,6867.39 5340.49,6891.11 5364.21,6891.11 5364.21,6914.83 5435.35,6914.83 5435.35,6938.55 5459.07,6938.55 5459.07,6962.25 5506.51,6962.25 5506.51,6985.97 5530.22,6985.97 5530.22,7009.69 5601.37,7009.69 5601.37,7033.41 5625.09,7033.41 5625.09,7057.13 5672.52,7057.13 5672.52,7080.83 5719.95,7080.83 5719.95,7104.55 5767.39,7104.55 5767.39,7128.27 5791.1,7128.27 5791.1,7151.99 5838.53,7151.99 5838.53,7175.71 5885.97,7175.71 5885.97,7199.44 5933.4,7199.44 5933.4,7223.14 5957.12,7223.14 5957.12,7246.85 6004.55,7246.85 6004.55,7270.57 6051.99,7270.57 6051.99,7294.29 6099.42,7294.29 6099.42,7318.01 6123.13,7318.01 6123.13,7341.73 6170.57,7341.73 6170.57,7365.43 6218,7365.43 6218,7389.15 6265.43,7389.15 6265.43,7412.87 6289.15,7412.87 6289.15,7436.59 6336.58,7436.59 6336.58,7460.31 6384.01,7460.31 6384.01,7484.02 6431.45,7484.02 6431.45,7507.73 6478.88,7507.73 6478.88,7531.45 6526.31,7531.45 6526.31,7555.17 6550.03,7555.17 6550.03,7578.89 6597.46,7578.89 6597.46,7602.62 6644.9,7602.62 6644.9,7626.32 6692.33,7626.32 6692.33,7650.03 6716.05,7650.03 6716.05,7673.75 6763.48,7673.75 6763.48,7697.47 6810.91,7697.47 6810.91,7721.19 6858.35,7721.19 6858.35,7744.91 6882.06,7744.91 6882.06,7768.62 6929.5,7768.62 6929.5,7792.33 6976.93,7792.33 6976.93,7816.05 7024.36,7816.05 7024.36,7839.77 7048.08,7839.77 7048.08,7863.49 7095.51,7863.49 7095.51,7887.2 7142.94,7887.2 7142.94,7910.91 7190.38,7910.91 7190.38,7934.63 7214.1,7934.63 7214.1,7958.35 7285.24,7958.35 7285.24,7982.07 7308.96,7982.07 7308.96,8005.78 7427.54,8005.78 7427.54,7982.07 7474.98,7982.07 7474.98,7958.35 7522.41,7958.35 7522.41,7934.63 7569.84,7934.63 7569.84,7910.91 7617.28,7910.91 7617.28,7887.2 7641,7887.2 7641,7863.49 7688.42,7863.49 7688.42,7839.77 7735.86,7839.77 7735.86,7816.05 7783.3,7816.05 7783.3,7792.33 7807,7792.33 7807,7768.62 7854.44,7768.62 7854.44,7744.91 7901.88,7744.91 7901.88,7721.19 7949.3,7721.19 7949.3,7697.47 7973.02,7697.47 7973.02,7673.75 8020.46,7673.75 8020.46,7650.03 8067.88,7650.03 8067.88,7626.32 8115.32,7626.32 8115.32,7602.62 8139.04,7602.62 8139.04,7578.89 8186.48,7578.89 8186.48,7555.17 8233.9,7555.17 8233.9,7531.45 8281.34,7531.45 8281.34,7507.73 8305.06,7507.73 8305.06,7484.02 8352.48,7484.02 8352.48,7460.31 8399.92,7460.31 8399.92,7436.59 8447.36,7436.59 8447.36,7412.87 8494.78,7412.87 8494.78,7389.15 8518.5,7389.15 8518.5,7365.43 8565.94,7365.43 8565.94,7341.73 8613.37,7341.73 8613.37,7318.01 8660.8,7318.01 8660.8,7294.29 8708.24,7294.29 8708.24,7270.57 8731.95,7270.57 8731.95,7246.85 8779.38,7246.85 8779.38,7223.14 8826.82,7223.14 8826.82,7199.44 8874.25,7199.44 8874.25,7175.71 8897.97,7175.71 8897.97,7151.99 8945.4,7151.99 8945.4,7128.27 8992.84,7128.27 8992.84,7104.55 9040.27,7104.55 9040.27,7080.83 9063.98,7080.83 9063.98,7057.13 9111.42,7057.13 9111.42,7033.41 9158.85,7033.41 9158.85,7009.69 9206.28,7009.69 9206.28,6985.97 9230,6985.97 9230,6962.25 9301.15,6962.25 9301.15,6938.55 9324.87,6938.55 9324.87,6914.83 9372.3,6914.83 9372.3,6891.11 9396.02,6891.11 9396.02,6867.39 9443.45,6867.39 9443.45,6843.67 9490.88,6843.67 9490.88,6819.96 9538.31,6819.96 9538.31,6796.24 9562.03,6796.24 9562.03,6772.53 9633.18,6772.53 9633.18,6748.81 9656.9,6748.81 9656.9,6725.09 9704.33,6725.09 9704.33,6701.37 9728.05,6701.37 9728.05,6677.65 9799.19,6677.65 9799.19,6653.94 9822.91,6653.94 9822.91,6630.23 9870.35,6630.23 9870.35,6606.51 9917.78,6606.51 9917.78,6582.79 9965.21,6582.79 9965.21,6559.07 9988.93,6559.07 9988.93,6535.36 10036.36,6535.36 10036.36,6511.64 10083.79,6511.64 10083.79,6487.93 10131.23,6487.93 10131.23,6464.21 10154.95,6464.21 10154.95,6440.49 10202.37,6440.49 10202.37,6416.78 10249.81,6416.78 10249.81,6393.06 10320.96,6393.06 10320.96,3049.03 10273.53,3049.03 10273.53,3025.31 10226.09,3025.31 10226.09,3001.59 10178.66,3001.59 10178.66,2977.88 10154.95,2977.88 10154.95,2954.16 10107.51,2954.16 10107.51,2930.46 10060.08,2930.46 10060.08,2906.73 10012.65,2906.73 10012.65,2883.01 9988.93,2883.01 9988.93,2859.29 9941.49,2859.29 9941.49,2835.58 9894.06,2835.58 9894.06,2811.86 9870.35,2811.86 9870.35,2788.15 9822.91,2788.15 9822.91,2764.43 9775.48,2764.43 9775.48,2740.71 9728.05,2740.71 9728.05,2716.99 9704.33,2716.99 9704.33,2693.28 9656.9,2693.28 9656.9,2669.57 9609.47,2669.57 9609.47,2645.85 9562.03,2645.85 9562.03,2622.13 9514.6,2622.13 9514.6,2598.41 9490.88,2598.41 9490.88,2574.69 9443.45,2574.69 9443.45,2550.98 9396.02,2550.98 9396.02,2527.28 9372.3,2527.28 9372.3,2503.55 9324.87,2503.55 9324.87,2479.83 9277.43,2479.83 9277.43,2456.11 9230,2456.11 9230,2432.39 9182.57,2432.39 9182.57,2408.69 9135.13,2408.69 9135.13,2384.97 9087.7,2384.97 9087.7,2361.25 9063.98,2361.25 9063.98,2337.53 9016.55,2337.53 9016.55,2313.81 8992.84,2313.81 8992.84,2290.09 8945.4,2290.09 8945.4,2266.38 8897.97,2266.38 8897.97,2242.67 8850.54,2242.67 8850.54,2218.95 8803.1,2218.95 8803.1,2195.23 8779.38,2195.23 8779.38,2171.51 8731.95,2171.51 8731.95,2147.8 8684.52,2147.8 8684.52,2124.1 8637.08,2124.1 8637.08,2100.37 8613.37,2100.37 8613.37,2076.65 8565.94,2076.65 8565.94,2052.93 8518.5,2052.93 8518.5,2029.21 8471.07,2029.21 8471.07,2005.49 8447.36,2005.49 8447.36,1981.79 8399.92,1981.79 8399.92,1958.07 8352.48,1958.07 8352.48,1934.35 8305.06,1934.35 8305.06,1910.63 8281.34,1910.63 8281.34,1886.91 8210.18,1886.91 8210.18,1863.2 8186.48,1863.2 8186.48,1839.49 8139.04,1839.49 8139.04,1815.77 8091.6,1815.77 8091.6,1792.05 8044.18,1792.05 8044.18,1768.33 8020.46,1768.33 8020.46,1744.62 7973.02,1744.62 7973.02,1720.9 7925.59,1720.9 7925.59,1697.19 7878.16,1697.19 7878.16,1673.47 7830.72,1673.47 7830.72,1649.75 7807,1649.75 7807,1626.03 7759.58,1626.03 7759.58,1602.31 7712.14,1602.31 7712.14,1578.6 7688.42,1578.6 7688.42,1554.89 7641,1554.89 7641,1531.17 7593.56,1531.17 7593.56,1507.45 7546.12,1507.45 7546.12,1483.73 7522.41,1483.73 7522.41,1460.02 7474.98,1460.02 7474.98,1436.3 7427.54,1436.3 7427.54,1412.59 7308.96,1412.59 "/>
    <polygon class="fil2" points="16748.14,6796.24 16724.43,6796.24 16724.43,6819.96 16676.99,6819.96 16676.99,6843.67 16629.56,6843.67 16629.56,6867.39 16582.13,6867.39 16582.13,6891.11 16534.69,6891.11 16534.69,6914.83 16510.97,6914.83 16510.97,6938.55 16463.55,6938.55 16463.55,6962.25 16416.11,6962.25 16416.11,6985.97 16368.67,6985.97 16368.67,7009.69 16344.96,7009.69 16344.96,7033.41 16297.53,7033.41 16297.53,7057.13 16250.09,7057.13 16250.09,7080.83 16202.66,7080.83 16202.66,7104.55 16178.95,7104.55 16178.95,7128.27 16131.51,7128.27 16131.51,7151.99 16084.07,7151.99 16084.07,7175.71 16036.65,7175.71 16036.65,7199.44 15989.21,7199.44 15989.21,7223.14 15965.49,7223.14 15965.49,7246.85 15918.07,7246.85 15918.07,7270.57 15870.63,7270.57 15870.63,7294.29 15823.19,7294.29 15823.19,7318.01 15799.48,7318.01 15799.48,7341.73 15752.05,7341.73 15752.05,7365.43 15704.61,7365.43 15704.61,7389.15 15657.18,7389.15 15657.18,7412.87 15633.47,7412.87 15633.47,7436.59 15586.03,7436.59 15586.03,7460.31 15538.6,7460.31 15538.6,7484.02 15491.17,7484.02 15491.17,7507.73 15467.45,7507.73 15467.45,7531.45 15420.01,7531.45 15420.01,7555.17 15372.58,7555.17 15372.58,7578.89 15325.15,7578.89 15325.15,7602.62 15277.71,7602.62 15277.71,7626.32 15254,7626.32 15254,7650.03 15206.57,7650.03 15206.57,7673.75 15159.13,7673.75 15159.13,7697.47 15111.7,7697.47 15111.7,7721.19 15087.98,7721.19 15087.98,7744.91 15040.55,7744.91 15040.55,7768.62 14993.12,7768.62 14993.12,7792.33 14945.69,7792.33 14945.69,7816.05 14898.25,7816.05 14898.25,7839.77 14874.53,7839.77 14874.53,7863.49 14827.1,7863.49 14827.1,7887.2 14779.67,7887.2 14779.67,7910.91 14732.24,7910.91 14732.24,7934.63 14708.52,7934.63 14708.52,7958.35 14661.09,7958.35 14661.09,7982.07 14613.65,7982.07 14613.65,8005.78 14566.22,8005.78 14566.22,8029.5 14542.5,8029.5 14542.5,8053.21 14495.07,8053.21 14495.07,8076.93 14447.64,8076.93 14447.64,8100.65 14400.2,8100.65 14400.2,8124.37 14352.77,8124.37 14352.77,8148.09 14329.06,8148.09 14329.06,8171.8 14281.62,8171.8 14281.62,8195.51 14234.19,8195.51 14234.19,8219.23 14186.76,8219.23 14186.76,8242.95 14163.04,8242.95 14163.04,8266.67 14115.6,8266.67 14115.6,8290.38 14068.17,8290.38 14068.17,8314.1 14020.74,8314.1 14020.74,8337.81 13997.02,8337.81 13997.02,8361.53 13949.59,8361.53 13949.59,8385.25 13902.16,8385.25 13902.16,8408.96 13854.72,8408.96 13854.72,11752.99 13925.88,11752.99 13925.88,11776.71 13949.59,11776.71 13949.59,11800.43 13997.02,11800.43 13997.02,11824.15 14044.46,11824.15 14044.46,11847.87 14091.89,11847.87 14091.89,11871.58 14115.6,11871.58 14115.6,11895.3 14163.04,11895.3 14163.04,11919.01 14210.47,11919.01 14210.47,11942.73 14257.9,11942.73 14257.9,11966.45 14281.62,11966.45 14281.62,11990.17 14329.06,11990.17 14329.06,12013.89 14376.49,12013.89 14376.49,12037.59 14423.92,12037.59 14423.92,12061.31 14447.64,12061.31 14447.64,12085.03 14495.07,12085.03 14495.07,12108.75 14542.5,12108.75 14542.5,12132.47 14589.94,12132.47 14589.94,12156.17 14637.37,12156.17 14637.37,12179.89 14661.09,12179.89 14661.09,12203.61 14708.52,12203.61 14708.52,12227.33 14755.95,12227.33 14755.95,12251.05 14803.39,12251.05 14803.39,12274.76 14827.1,12274.76 14827.1,12298.48 14874.53,12298.48 14874.53,12322.19 14921.97,12322.19 14921.97,12345.91 14969.4,12345.91 14969.4,12369.63 14993.12,12369.63 14993.12,12393.35 15040.55,12393.35 15040.55,12417.07 15087.98,12417.07 15087.98,12440.77 15135.42,12440.77 15135.42,12464.49 15182.85,12464.49 15182.85,12488.21 15206.57,12488.21 15206.57,12511.93 15254,12511.93 15254,12535.65 15301.43,12535.65 15301.43,12559.35 15348.87,12559.35 15348.87,12583.07 15372.58,12583.07 15372.58,12606.79 15420.01,12606.79 15420.01,12630.51 15467.45,12630.51 15467.45,12654.23 15514.88,12654.23 15514.88,12677.94 15538.6,12677.94 15538.6,12701.66 15586.03,12701.66 15586.03,12725.37 15633.47,12725.37 15633.47,12749.09 15680.89,12749.09 15680.89,12772.81 15704.61,12772.81 15704.61,12796.53 15752.05,12796.53 15752.05,12820.25 15799.48,12820.25 15799.48,12843.95 15846.91,12843.95 15846.91,12867.67 15870.63,12867.67 15870.63,12891.39 15918.07,12891.39 15918.07,12915.11 15965.49,12915.11 15965.49,12938.84 16012.93,12938.84 16012.93,12962.54 16060.37,12962.54 16060.37,12986.25 16084.07,12986.25 16084.07,13009.97 16131.51,13009.97 16131.51,13033.69 16178.95,13033.69 16178.95,13057.41 16226.37,13057.41 16226.37,13081.12 16250.09,13081.12 16250.09,13104.84 16297.53,13104.84 16297.53,13128.55 16344.96,13128.55 16344.96,13152.27 16392.39,13152.27 16392.39,13175.99 16439.83,13175.99 16439.83,13199.71 16463.55,13199.71 16463.55,13223.43 16510.97,13223.43 16510.97,13247.14 16558.41,13247.14 16558.41,13270.85 16605.84,13270.85 16605.84,13294.57 16629.56,13294.57 16629.56,13318.29 16676.99,13318.29 16676.99,13342.02 16724.43,13342.02 16724.43,13365.72 16771.86,13365.72 16771.86,13389.44 16819.29,13389.44 16819.29,13365.72 16866.73,13365.72 16866.73,13342.02 16914.15,13342.02 16914.15,13318.29 16961.59,13318.29 16961.59,13294.57 17009.02,13294.57 17009.02,13270.85 17032.74,13270.85 17032.74,13247.14 17080.17,13247.14 17080.17,13223.43 17127.61,13223.43 17127.61,13199.71 17175.04,13199.71 17175.04,13175.99 17198.75,13175.99 17198.75,13152.27 17246.19,13152.27 17246.19,13128.55 17293.62,13128.55 17293.62,13104.84 17341.05,13104.84 17341.05,13081.12 17364.77,13081.12 17364.77,13057.41 17412.2,13057.41 17412.2,13033.69 17459.64,13033.69 17459.64,13009.97 17507.07,13009.97 17507.07,12986.25 17554.5,12986.25 17554.5,12962.54 17578.22,12962.54 17578.22,12938.84 17625.65,12938.84 17625.65,12915.11 17673.09,12915.11 17673.09,12891.39 17720.52,12891.39 17720.52,12867.67 17744.24,12867.67 17744.24,12843.95 17791.67,12843.95 17791.67,12820.25 17839.1,12820.25 17839.1,12796.53 17886.54,12796.53 17886.54,12772.81 17910.25,12772.81 17910.25,12749.09 17957.68,12749.09 17957.68,12725.37 18005.12,12725.37 18005.12,12701.66 18052.55,12701.66 18052.55,12677.94 18099.98,12677.94 18099.98,12654.23 18123.7,12654.23 18123.7,12630.51 18171.14,12630.51 18171.14,12606.79 18218.56,12606.79 18218.56,12583.07 18266,12583.07 18266,12559.35 18289.72,12559.35 18289.72,12535.65 18337.15,12535.65 18337.15,12511.93 18384.58,12511.93 18384.58,12488.21 18432.02,12488.21 18432.02,12464.49 18455.74,12464.49 18455.74,12440.77 18503.16,12440.77 18503.16,12417.07 18550.6,12417.07 18550.6,12393.35 18598.03,12393.35 18598.03,12369.63 18621.74,12369.63 18621.74,12345.91 18669.18,12345.91 18669.18,12322.19 18716.62,12322.19 18716.62,12298.48 18764.04,12298.48 18764.04,12274.76 18811.48,12274.76 18811.48,12251.05 18835.2,12251.05 18835.2,12227.33 18882.63,12227.33 18882.63,12203.61 18930.06,12203.61 18930.06,12179.89 18977.5,12179.89 18977.5,12156.17 19001.22,12156.17 19001.22,12132.47 19048.64,12132.47 19048.64,12108.75 19096.08,12108.75 19096.08,12085.03 19143.51,12085.03 19143.51,12061.31 19167.22,12061.31 19167.22,12037.59 19214.66,12037.59 19214.66,12013.89 19262.1,12013.89 19262.1,11990.17 19309.52,11990.17 19309.52,11966.45 19356.96,11966.45 19356.96,11942.73 19380.68,11942.73 19380.68,11919.01 19428.11,11919.01 19428.11,11895.3 19475.54,11895.3 19475.54,11871.58 19522.98,11871.58 19522.98,11847.87 19546.69,11847.87 19546.69,11824.15 19594.12,11824.15 19594.12,11800.43 19641.56,11800.43 19641.56,11776.71 19688.99,11776.71 19688.99,11752.99 19736.42,11752.99 19736.42,8408.96 19688.99,8408.96 19688.99,8385.25 19641.56,8385.25 19641.56,8361.53 19594.12,8361.53 19594.12,8337.81 19570.41,8337.81 19570.41,8314.1 19522.98,8314.1 19522.98,8290.38 19475.54,8290.38 19475.54,8266.67 19428.11,8266.67 19428.11,8242.95 19404.4,8242.95 19404.4,8219.23 19356.96,8219.23 19356.96,8195.51 19309.52,8195.51 19309.52,8171.8 19262.1,8171.8 19262.1,8148.09 19238.38,8148.09 19238.38,8124.37 19190.94,8124.37 19190.94,8100.65 19143.51,8100.65 19143.51,8076.93 19096.08,8076.93 19096.08,8053.21 19072.36,8053.21 19072.36,8029.5 19024.92,8029.5 19024.92,8005.78 18977.5,8005.78 18977.5,7982.07 18930.06,7982.07 18930.06,7958.35 18882.63,7958.35 18882.63,7934.63 18858.92,7934.63 18858.92,7910.91 18811.48,7910.91 18811.48,7887.2 18764.04,7887.2 18764.04,7863.49 18716.62,7863.49 18716.62,7839.77 18692.9,7839.77 18692.9,7816.05 18645.46,7816.05 18645.46,7792.33 18598.03,7792.33 18598.03,7768.62 18550.6,7768.62 18550.6,7744.91 18526.88,7744.91 18526.88,7721.19 18479.45,7721.19 18479.45,7697.47 18432.02,7697.47 18432.02,7673.75 18384.58,7673.75 18384.58,7650.03 18337.15,7650.03 18337.15,7626.32 18313.44,7626.32 18313.44,7602.62 18266,7602.62 18266,7578.89 18218.56,7578.89 18218.56,7555.17 18171.14,7555.17 18171.14,7531.45 18147.42,7531.45 18147.42,7507.73 18099.98,7507.73 18099.98,7484.02 18052.55,7484.02 18052.55,7460.31 18005.12,7460.31 18005.12,7436.59 17981.4,7436.59 17981.4,7412.87 17933.97,7412.87 17933.97,7389.15 17886.54,7389.15 17886.54,7365.43 17839.1,7365.43 17839.1,7341.73 17791.67,7341.73 17791.67,7318.01 17767.95,7318.01 17767.95,7294.29 17720.52,7294.29 17720.52,7270.57 17673.09,7270.57 17673.09,7246.85 17625.65,7246.85 17625.65,7223.14 17601.94,7223.14 17601.94,7199.44 17554.5,7199.44 17554.5,7175.71 17507.07,7175.71 17507.07,7151.99 17459.64,7151.99 17459.64,7128.27 17435.92,7128.27 17435.92,7104.55 17388.49,7104.55 17388.49,7080.83 17341.05,7080.83 17341.05,7057.13 17293.62,7057.13 17293.62,7033.41 17269.91,7033.41 17269.91,7009.69 17222.47,7009.69 17222.47,6985.97 17175.04,6985.97 17175.04,6962.25 17127.61,6962.25 17127.61,6938.55 17080.17,6938.55 17080.17,6914.83 17056.45,6914.83 17056.45,6891.11 17009.02,6891.11 17009.02,6867.39 16961.59,6867.39 16961.59,6843.67 16914.15,6843.67 16914.15,6819.96 16890.44,6819.96 16890.44,6796.24 16843.01,6796.24 16843.01,6772.53 16748.14,6772.53 "/>
    <polygon class="fil3" points="13649.8,1507.28 13626.09,1507.28 13626.09,1531 13578.65,1531 13578.65,1554.71 13531.22,1554.71 13531.22,1578.43 13483.79,1578.43 13483.79,1602.15 13436.35,1602.15 13436.35,1625.87 13412.63,1625.87 13412.63,1649.59 13365.21,1649.59 13365.21,1673.29 13317.77,1673.29 13317.77,1697.01 13270.33,1697.01 13270.33,1720.73 13246.62,1720.73 13246.62,1744.45 13199.19,1744.45 13199.19,1768.17 13151.75,1768.17 13151.75,1791.87 13104.32,1791.87 13104.32,1815.59 13080.61,1815.59 13080.61,1839.31 13033.17,1839.31 13033.17,1863.03 12985.73,1863.03 12985.73,1886.75 12938.31,1886.75 12938.31,1910.48 12890.87,1910.48 12890.87,1934.18 12867.15,1934.18 12867.15,1957.89 12819.73,1957.89 12819.73,1981.61 12772.29,1981.61 12772.29,2005.33 12724.85,2005.33 12724.85,2029.05 12701.14,2029.05 12701.14,2052.77 12653.71,2052.77 12653.71,2076.47 12606.27,2076.47 12606.27,2100.19 12558.84,2100.19 12558.84,2123.91 12535.13,2123.91 12535.13,2147.63 12487.69,2147.63 12487.69,2171.35 12440.26,2171.35 12440.26,2195.06 12392.83,2195.06 12392.83,2218.77 12369.11,2218.77 12369.11,2242.49 12321.67,2242.49 12321.67,2266.21 12274.24,2266.21 12274.24,2289.93 12226.81,2289.93 12226.81,2313.66 12179.37,2313.66 12179.37,2337.36 12155.66,2337.36 12155.66,2361.07 12108.23,2361.07 12108.23,2384.79 12060.79,2384.79 12060.79,2408.51 12013.36,2408.51 12013.36,2432.23 11989.64,2432.23 11989.64,2455.95 11942.21,2455.95 11942.21,2479.66 11894.78,2479.66 11894.78,2503.37 11847.35,2503.37 11847.35,2527.09 11799.91,2527.09 11799.91,2550.81 11776.19,2550.81 11776.19,2574.53 11728.76,2574.53 11728.76,2598.24 11681.33,2598.24 11681.33,2621.95 11633.9,2621.95 11633.9,2645.67 11610.18,2645.67 11610.18,2669.39 11562.75,2669.39 11562.75,2693.11 11515.31,2693.11 11515.31,2716.82 11467.88,2716.82 11467.88,2740.54 11444.16,2740.54 11444.16,2764.25 11396.73,2764.25 11396.73,2787.97 11349.3,2787.97 11349.3,2811.69 11301.86,2811.69 11301.86,2835.41 11254.43,2835.41 11254.43,2859.13 11230.72,2859.13 11230.72,2882.84 11183.28,2882.84 11183.28,2906.55 11135.85,2906.55 11135.85,2930.27 11088.42,2930.27 11088.42,2953.99 11064.7,2953.99 11064.7,2977.71 11017.26,2977.71 11017.26,3001.42 10969.83,3001.42 10969.83,3025.14 10922.4,3025.14 10922.4,3048.85 10898.68,3048.85 10898.68,3072.57 10851.25,3072.57 10851.25,3096.29 10803.82,3096.29 10803.82,3120 10756.38,3120 10756.38,6464.03 10827.54,6464.03 10827.54,6487.75 10851.25,6487.75 10851.25,6511.47 10898.68,6511.47 10898.68,6535.19 10946.12,6535.19 10946.12,6558.91 10993.55,6558.91 10993.55,6582.62 11017.26,6582.62 11017.26,6606.34 11064.7,6606.34 11064.7,6630.05 11112.13,6630.05 11112.13,6653.77 11159.56,6653.77 11159.56,6677.49 11183.28,6677.49 11183.28,6701.21 11230.72,6701.21 11230.72,6724.93 11278.15,6724.93 11278.15,6748.63 11325.58,6748.63 11325.58,6772.35 11349.3,6772.35 11349.3,6796.07 11396.73,6796.07 11396.73,6819.79 11444.16,6819.79 11444.16,6843.51 11491.6,6843.51 11491.6,6867.21 11539.03,6867.21 11539.03,6890.93 11562.75,6890.93 11562.75,6914.65 11610.18,6914.65 11610.18,6938.37 11657.61,6938.37 11657.61,6962.09 11705.05,6962.09 11705.05,6985.8 11728.76,6985.8 11728.76,7009.52 11776.19,7009.52 11776.19,7033.23 11823.63,7033.23 11823.63,7056.95 11871.06,7056.95 11871.06,7080.67 11894.78,7080.67 11894.78,7104.39 11942.21,7104.39 11942.21,7128.11 11989.64,7128.11 11989.64,7151.81 12037.08,7151.81 12037.08,7175.53 12084.51,7175.53 12084.51,7199.25 12108.23,7199.25 12108.23,7222.97 12155.66,7222.97 12155.66,7246.69 12203.09,7246.69 12203.09,7270.39 12250.53,7270.39 12250.53,7294.11 12274.24,7294.11 12274.24,7317.83 12321.67,7317.83 12321.67,7341.55 12369.11,7341.55 12369.11,7365.27 12416.54,7365.27 12416.54,7388.98 12440.26,7388.98 12440.26,7412.7 12487.69,7412.7 12487.69,7436.41 12535.13,7436.41 12535.13,7460.13 12582.55,7460.13 12582.55,7483.85 12606.27,7483.85 12606.27,7507.57 12653.71,7507.57 12653.71,7531.29 12701.14,7531.29 12701.14,7554.99 12748.57,7554.99 12748.57,7578.71 12772.29,7578.71 12772.29,7602.43 12819.73,7602.43 12819.73,7626.15 12867.15,7626.15 12867.15,7649.88 12914.59,7649.88 12914.59,7673.58 12962.03,7673.58 12962.03,7697.29 12985.73,7697.29 12985.73,7721.01 13033.17,7721.01 13033.17,7744.73 13080.61,7744.73 13080.61,7768.45 13128.03,7768.45 13128.03,7792.16 13151.75,7792.16 13151.75,7815.88 13199.19,7815.88 13199.19,7839.59 13246.62,7839.59 13246.62,7863.31 13294.05,7863.31 13294.05,7887.03 13341.49,7887.03 13341.49,7910.75 13365.21,7910.75 13365.21,7934.47 13412.63,7934.47 13412.63,7958.18 13460.07,7958.18 13460.07,7981.89 13507.5,7981.89 13507.5,8005.61 13531.22,8005.61 13531.22,8029.33 13578.65,8029.33 13578.65,8053.06 13626.09,8053.06 13626.09,8076.76 13673.52,8076.76 13673.52,8100.48 13720.95,8100.48 13720.95,8076.76 13768.39,8076.76 13768.39,8053.06 13815.81,8053.06 13815.81,8029.33 13863.25,8029.33 13863.25,8005.61 13910.68,8005.61 13910.68,7981.89 13934.4,7981.89 13934.4,7958.18 13981.83,7958.18 13981.83,7934.47 14029.27,7934.47 14029.27,7910.75 14076.7,7910.75 14076.7,7887.03 14100.41,7887.03 14100.41,7863.31 14147.85,7863.31 14147.85,7839.59 14195.28,7839.59 14195.28,7815.88 14242.71,7815.88 14242.71,7792.16 14266.43,7792.16 14266.43,7768.45 14313.86,7768.45 14313.86,7744.73 14361.3,7744.73 14361.3,7721.01 14408.73,7721.01 14408.73,7697.29 14456.16,7697.29 14456.16,7673.58 14479.88,7673.58 14479.88,7649.88 14527.31,7649.88 14527.31,7626.15 14574.75,7626.15 14574.75,7602.43 14622.18,7602.43 14622.18,7578.71 14645.9,7578.71 14645.9,7554.99 14693.33,7554.99 14693.33,7531.29 14740.76,7531.29 14740.76,7507.57 14788.2,7507.57 14788.2,7483.85 14811.91,7483.85 14811.91,7460.13 14859.34,7460.13 14859.34,7436.41 14906.78,7436.41 14906.78,7412.7 14954.21,7412.7 14954.21,7388.98 15001.64,7388.98 15001.64,7365.27 15025.36,7365.27 15025.36,7341.55 15072.8,7341.55 15072.8,7317.83 15120.22,7317.83 15120.22,7294.11 15167.66,7294.11 15167.66,7270.39 15191.38,7270.39 15191.38,7246.69 15238.81,7246.69 15238.81,7222.97 15286.24,7222.97 15286.24,7199.25 15333.68,7199.25 15333.68,7175.53 15357.4,7175.53 15357.4,7151.81 15404.82,7151.81 15404.82,7128.11 15452.26,7128.11 15452.26,7104.39 15499.69,7104.39 15499.69,7080.67 15523.4,7080.67 15523.4,7056.95 15570.84,7056.95 15570.84,7033.23 15618.28,7033.23 15618.28,7009.52 15665.7,7009.52 15665.7,6985.8 15713.14,6985.8 15713.14,6962.09 15736.86,6962.09 15736.86,6938.37 15784.29,6938.37 15784.29,6914.65 15831.72,6914.65 15831.72,6890.93 15879.16,6890.93 15879.16,6867.21 15902.88,6867.21 15902.88,6843.51 15950.3,6843.51 15950.3,6819.79 15997.74,6819.79 15997.74,6796.07 16045.17,6796.07 16045.17,6772.35 16068.88,6772.35 16068.88,6748.63 16116.32,6748.63 16116.32,6724.93 16163.76,6724.93 16163.76,6701.21 16211.18,6701.21 16211.18,6677.49 16258.62,6677.49 16258.62,6653.77 16282.34,6653.77 16282.34,6630.05 16329.77,6630.05 16329.77,6606.34 16377.2,6606.34 16377.2,6582.62 16424.64,6582.62 16424.64,6558.91 16448.35,6558.91 16448.35,6535.19 16495.78,6535.19 16495.78,6511.47 16543.22,6511.47 16543.22,6487.75 16590.65,6487.75 16590.65,6464.03 16638.08,6464.03 16638.08,3120 16590.65,3120 16590.65,3096.29 16543.22,3096.29 16543.22,3072.57 16495.78,3072.57 16495.78,3048.85 16472.07,3048.85 16472.07,3025.14 16424.64,3025.14 16424.64,3001.42 16377.2,3001.42 16377.2,2977.71 16329.77,2977.71 16329.77,2953.99 16306.06,2953.99 16306.06,2930.27 16258.62,2930.27 16258.62,2906.55 16211.18,2906.55 16211.18,2882.84 16163.76,2882.84 16163.76,2859.13 16140.04,2859.13 16140.04,2835.41 16092.6,2835.41 16092.6,2811.69 16045.17,2811.69 16045.17,2787.97 15997.74,2787.97 15997.74,2764.25 15974.02,2764.25 15974.02,2740.54 15926.58,2740.54 15926.58,2716.82 15879.16,2716.82 15879.16,2693.11 15831.72,2693.11 15831.72,2669.39 15784.29,2669.39 15784.29,2645.67 15760.58,2645.67 15760.58,2621.95 15713.14,2621.95 15713.14,2598.24 15665.7,2598.24 15665.7,2574.53 15618.28,2574.53 15618.28,2550.81 15594.56,2550.81 15594.56,2527.09 15547.12,2527.09 15547.12,2503.37 15499.69,2503.37 15499.69,2479.66 15452.26,2479.66 15452.26,2455.95 15428.54,2455.95 15428.54,2432.23 15381.11,2432.23 15381.11,2408.51 15333.68,2408.51 15333.68,2384.79 15286.24,2384.79 15286.24,2361.07 15238.81,2361.07 15238.81,2337.36 15215.1,2337.36 15215.1,2313.66 15167.66,2313.66 15167.66,2289.93 15120.22,2289.93 15120.22,2266.21 15072.8,2266.21 15072.8,2242.49 15049.08,2242.49 15049.08,2218.77 15001.64,2218.77 15001.64,2195.06 14954.21,2195.06 14954.21,2171.35 14906.78,2171.35 14906.78,2147.63 14883.06,2147.63 14883.06,2123.91 14835.63,2123.91 14835.63,2100.19 14788.2,2100.19 14788.2,2076.47 14740.76,2076.47 14740.76,2052.77 14693.33,2052.77 14693.33,2029.05 14669.61,2029.05 14669.61,2005.33 14622.18,2005.33 14622.18,1981.61 14574.75,1981.61 14574.75,1957.89 14527.31,1957.89 14527.31,1934.18 14503.6,1934.18 14503.6,1910.48 14456.16,1910.48 14456.16,1886.75 14408.73,1886.75 14408.73,1863.03 14361.3,1863.03 14361.3,1839.31 14337.58,1839.31 14337.58,1815.59 14290.15,1815.59 14290.15,1791.87 14242.71,1791.87 14242.71,1768.17 14195.28,1768.17 14195.28,1744.45 14171.57,1744.45 14171.57,1720.73 14124.13,1720.73 14124.13,1697.01 14076.7,1697.01 14076.7,1673.29 14029.27,1673.29 14029.27,1649.59 13981.83,1649.59 13981.83,1625.87 13958.11,1625.87 13958.11,1602.15 13910.68,1602.15 13910.68,1578.43 13863.25,1578.43 13863.25,1554.71 13815.81,1554.71 13815.81,1531 13792.1,1531 13792.1,1507.28 13744.67,1507.28 13744.67,1483.57 13649.8,1483.57 "/>
    <polygon class="fil4" points="13688.7,12227.33 13641.28,12227.33 13641.28,12251.05 13617.56,12251.05 13617.56,12274.76 13570.12,12274.76 13570.12,12298.48 13522.7,12298.48 13522.7,12322.19 13475.26,12322.19 13475.26,12345.91 13451.54,12345.91 13451.54,12369.63 13404.11,12369.63 13404.11,12393.35 13356.68,12393.35 13356.68,12417.07 13309.24,12417.07 13309.24,12440.77 13285.52,12440.77 13285.52,12464.49 13238.1,12464.49 13238.1,12488.21 13190.66,12488.21 13190.66,12511.93 13143.22,12511.93 13143.22,12535.65 13119.52,12535.65 13119.52,12559.35 13072.08,12559.35 13072.08,12583.07 13024.64,12583.07 13024.64,12606.79 12977.22,12606.79 12977.22,12630.51 12929.78,12630.51 12929.78,12654.23 12882.34,12654.23 12882.34,12677.94 12858.63,12677.94 12858.63,12701.66 12811.2,12701.66 12811.2,12725.37 12763.76,12725.37 12763.76,12749.09 12716.33,12749.09 12716.33,12772.81 12692.62,12772.81 12692.62,12796.53 12645.18,12796.53 12645.18,12820.25 12597.75,12820.25 12597.75,12843.95 12550.32,12843.95 12550.32,12867.67 12526.6,12867.67 12526.6,12891.39 12479.16,12891.39 12479.16,12915.11 12431.73,12915.11 12431.73,12938.84 12384.3,12938.84 12384.3,12962.54 12360.58,12962.54 12360.58,12986.25 12313.15,12986.25 12313.15,13009.97 12265.72,13009.97 12265.72,13033.69 12218.28,13033.69 12218.28,13057.41 12194.57,13057.41 12194.57,13081.12 12147.13,13081.12 12147.13,13104.84 12099.7,13104.84 12099.7,13128.55 12052.27,13128.55 12052.27,13152.27 12028.55,13152.27 12028.55,13175.99 11981.12,13175.99 11981.12,13199.71 11933.68,13199.71 11933.68,13223.43 11886.25,13223.43 11886.25,13247.14 11862.53,13247.14 11862.53,13270.85 11815.1,13270.85 11815.1,13294.57 11767.67,13294.57 11767.67,13318.29 11720.23,13318.29 11720.23,13342.02 11672.8,13342.02 11672.8,13365.72 11625.37,13365.72 11625.37,13389.44 11601.65,13389.44 11601.65,13413.15 11554.22,13413.15 11554.22,13436.87 11506.79,13436.87 11506.79,13460.59 11459.35,13460.59 11459.35,13484.3 11435.64,13484.3 11435.64,13508.02 11388.21,13508.02 11388.21,13531.74 11340.77,13531.74 11340.77,13555.45 11293.34,13555.45 11293.34,13579.17 11269.62,13579.17 11269.62,13602.89 11222.19,13602.89 11222.19,13626.61 11174.75,13626.61 11174.75,13650.32 11127.33,13650.32 11127.33,13674.04 11103.61,13674.04 11103.61,13697.75 11056.17,13697.75 11056.17,13721.47 11008.74,13721.47 11008.74,13745.2 10961.31,13745.2 10961.31,13768.9 10937.59,13768.9 10937.59,13792.62 10890.15,13792.62 10890.15,13816.34 10842.73,13816.34 10842.73,13840.05 10819.01,13840.05 10819.01,17160.37 10842.73,17160.37 10842.73,17184.09 10866.44,17184.09 10866.44,17207.8 10913.87,17207.8 10913.87,17231.51 10937.59,17231.51 10937.59,17255.23 10985.03,17255.23 10985.03,17278.95 11032.45,17278.95 11032.45,17302.67 11056.17,17302.67 11056.17,17326.39 11103.61,17326.39 11103.61,17350.1 11151.04,17350.1 11151.04,17373.82 11198.47,17373.82 11198.47,17397.53 11245.91,17397.53 11245.91,17421.25 11269.62,17421.25 11269.62,17444.97 11317.05,17444.97 11317.05,17468.69 11364.49,17468.69 11364.49,17492.41 11411.92,17492.41 11411.92,17516.11 11435.64,17516.11 11435.64,17539.83 11483.07,17539.83 11483.07,17563.55 11530.51,17563.55 11530.51,17587.27 11577.93,17587.27 11577.93,17611 11601.65,17611 11601.65,17634.69 11649.09,17634.69 11649.09,17658.41 11696.52,17658.41 11696.52,17682.13 11743.95,17682.13 11743.95,17705.85 11767.67,17705.85 11767.67,17729.57 11815.1,17729.57 11815.1,17753.28 11862.53,17753.28 11862.53,17776.99 11909.97,17776.99 11909.97,17800.71 11957.4,17800.71 11957.4,17824.43 11981.12,17824.43 11981.12,17848.15 12028.55,17848.15 12028.55,17871.87 12075.98,17871.87 12075.98,17895.59 12123.42,17895.59 12123.42,17919.29 12170.85,17919.29 12170.85,17943.01 12194.57,17943.01 12194.57,17966.73 12242,17966.73 12242,17990.45 12289.43,17990.45 12289.43,18014.18 12313.15,18014.18 12313.15,18037.88 12360.58,18037.88 12360.58,18061.59 12408.02,18061.59 12408.02,18085.31 12455.45,18085.31 12455.45,18109.03 12502.88,18109.03 12502.88,18132.75 12526.6,18132.75 12526.6,18156.46 12574.03,18156.46 12574.03,18180.18 12621.46,18180.18 12621.46,18203.89 12668.9,18203.89 12668.9,18227.61 12692.62,18227.61 12692.62,18251.33 12740.04,18251.33 12740.04,18275.05 12787.48,18275.05 12787.48,18298.77 12834.92,18298.77 12834.92,18322.48 12858.63,18322.48 12858.63,18346.19 12906.06,18346.19 12906.06,18369.91 12953.5,18369.91 12953.5,18393.63 13000.93,18393.63 13000.93,18417.36 13048.36,18417.36 13048.36,18441.06 13072.08,18441.06 13072.08,18464.78 13119.52,18464.78 13119.52,18488.49 13166.94,18488.49 13166.94,18512.21 13214.38,18512.21 13214.38,18535.93 13261.82,18535.93 13261.82,18559.64 13285.52,18559.64 13285.52,18583.36 13332.96,18583.36 13332.96,18607.08 13380.4,18607.08 13380.4,18630.79 13427.82,18630.79 13427.82,18654.51 13451.54,18654.51 13451.54,18678.23 13498.98,18678.23 13498.98,18701.95 13546.4,18701.95 13546.4,18725.66 13593.84,18725.66 13593.84,18749.38 13617.56,18749.38 13617.56,18773.09 13665,18773.09 13665,18796.81 13712.42,18796.81 13712.42,18820.54 13783.58,18820.54 13783.58,18796.81 13807.29,18796.81 13807.29,18773.09 13854.72,18773.09 13854.72,18749.38 13902.16,18749.38 13902.16,18725.66 13949.59,18725.66 13949.59,18701.95 13973.3,18701.95 13973.3,18678.23 14020.74,18678.23 14020.74,18654.51 14068.17,18654.51 14068.17,18630.79 14115.6,18630.79 14115.6,18607.08 14139.32,18607.08 14139.32,18583.36 14186.76,18583.36 14186.76,18559.64 14234.19,18559.64 14234.19,18535.93 14281.62,18535.93 14281.62,18512.21 14305.34,18512.21 14305.34,18488.49 14352.77,18488.49 14352.77,18464.78 14400.2,18464.78 14400.2,18441.06 14447.64,18441.06 14447.64,18417.36 14471.35,18417.36 14471.35,18393.63 14518.79,18393.63 14518.79,18369.91 14566.22,18369.91 14566.22,18346.19 14613.65,18346.19 14613.65,18322.48 14637.37,18322.48 14637.37,18298.77 14684.8,18298.77 14684.8,18275.05 14732.24,18275.05 14732.24,18251.33 14779.67,18251.33 14779.67,18227.61 14827.1,18227.61 14827.1,18203.89 14850.82,18203.89 14850.82,18180.18 14898.25,18180.18 14898.25,18156.46 14945.69,18156.46 14945.69,18132.75 14993.12,18132.75 14993.12,18109.03 15016.83,18109.03 15016.83,18085.31 15064.27,18085.31 15064.27,18061.59 15111.7,18061.59 15111.7,18037.88 15159.13,18037.88 15159.13,18014.18 15206.57,18014.18 15206.57,17990.45 15230.28,17990.45 15230.28,17966.73 15277.71,17966.73 15277.71,17943.01 15325.15,17943.01 15325.15,17919.29 15372.58,17919.29 15372.58,17895.59 15396.3,17895.59 15396.3,17871.87 15443.73,17871.87 15443.73,17848.15 15491.17,17848.15 15491.17,17824.43 15538.6,17824.43 15538.6,17800.71 15562.31,17800.71 15562.31,17776.99 15609.75,17776.99 15609.75,17753.28 15657.18,17753.28 15657.18,17729.57 15704.61,17729.57 15704.61,17705.85 15728.33,17705.85 15728.33,17682.13 15775.77,17682.13 15775.77,17658.41 15823.19,17658.41 15823.19,17634.69 15870.63,17634.69 15870.63,17611 15894.35,17611 15894.35,17587.27 15941.78,17587.27 15941.78,17563.55 15989.21,17563.55 15989.21,17539.83 16036.65,17539.83 16036.65,17516.11 16060.37,17516.11 16060.37,17492.41 16131.51,17492.41 16131.51,17468.69 16155.23,17468.69 16155.23,17444.97 16202.66,17444.97 16202.66,17421.25 16250.09,17421.25 16250.09,17397.53 16297.53,17397.53 16297.53,17373.82 16321.25,17373.82 16321.25,17350.1 16368.67,17350.1 16368.67,17326.39 16416.11,17326.39 16416.11,17302.67 16463.55,17302.67 16463.55,17278.95 16487.26,17278.95 16487.26,17255.23 16534.69,17255.23 16534.69,17231.51 16582.13,17231.51 16582.13,17207.8 16629.56,17207.8 16629.56,17184.09 16653.27,17184.09 16653.27,17160.37 16676.99,17160.37 16676.99,13840.05 16629.56,13840.05 16629.56,13816.34 16605.84,13816.34 16605.84,13792.62 16558.41,13792.62 16558.41,13768.9 16510.97,13768.9 16510.97,13745.2 16463.55,13745.2 16463.55,13721.47 16439.83,13721.47 16439.83,13697.75 16392.39,13697.75 16392.39,13674.04 16344.96,13674.04 16344.96,13650.32 16297.53,13650.32 16297.53,13626.61 16273.81,13626.61 16273.81,13602.89 16226.37,13602.89 16226.37,13579.17 16178.95,13579.17 16178.95,13555.45 16131.51,13555.45 16131.51,13531.74 16084.07,13531.74 16084.07,13508.02 16060.37,13508.02 16060.37,13484.3 16012.93,13484.3 16012.93,13460.59 15965.49,13460.59 15965.49,13436.87 15918.07,13436.87 15918.07,13413.15 15870.63,13413.15 15870.63,13389.44 15846.91,13389.44 15846.91,13365.72 15799.48,13365.72 15799.48,13342.02 15752.05,13342.02 15752.05,13318.29 15704.61,13318.29 15704.61,13294.57 15680.89,13294.57 15680.89,13270.85 15633.47,13270.85 15633.47,13247.14 15586.03,13247.14 15586.03,13223.43 15538.6,13223.43 15538.6,13199.71 15514.88,13199.71 15514.88,13175.99 15467.45,13175.99 15467.45,13152.27 15420.01,13152.27 15420.01,13128.55 15372.58,13128.55 15372.58,13104.84 15348.87,13104.84 15348.87,13081.12 15301.43,13081.12 15301.43,13057.41 15254,13057.41 15254,13033.69 15206.57,13033.69 15206.57,13009.97 15182.85,13009.97 15182.85,12986.25 15135.42,12986.25 15135.42,12962.54 15087.98,12962.54 15087.98,12938.84 15040.55,12938.84 15040.55,12915.11 15016.83,12915.11 15016.83,12891.39 14969.4,12891.39 14969.4,12867.67 14921.97,12867.67 14921.97,12843.95 14874.53,12843.95 14874.53,12820.25 14827.1,12820.25 14827.1,12796.53 14779.67,12796.53 14779.67,12772.81 14755.95,12772.81 14755.95,12749.09 14708.52,12749.09 14708.52,12725.37 14661.09,12725.37 14661.09,12701.66 14613.65,12701.66 14613.65,12677.94 14589.94,12677.94 14589.94,12654.23 14542.5,12654.23 14542.5,12630.51 14495.07,12630.51 14495.07,12606.79 14447.64,12606.79 14447.64,12583.07 14423.92,12583.07 14423.92,12559.35 14376.49,12559.35 14376.49,12535.65 14329.06,12535.65 14329.06,12511.93 14281.62,12511.93 14281.62,12488.21 14257.9,12488.21 14257.9,12464.49 14210.47,12464.49 14210.47,12440.77 14163.04,12440.77 14163.04,12417.07 14115.6,12417.07 14115.6,12393.35 14091.89,12393.35 14091.89,12369.63 14044.46,12369.63 14044.46,12345.91 13997.02,12345.91 13997.02,12322.19 13949.59,12322.19 13949.59,12298.48 13902.16,12298.48 13902.16,12274.76 13878.44,12274.76 13878.44,12251.05 13831,12251.05 13831,12227.33 13783.58,12227.33 13783.58,12203.61 13688.7,12203.61 "/>
    <polygon class="fil5" points="4368.11,6867.39 4296.96,6867.39 4296.96,6914.83 4225.81,6914.83 4225.81,6938.55 4202.09,6938.55 4202.09,6962.25 4130.95,6962.25 4130.95,6985.97 4083.51,6985.97 4083.51,7009.69 4059.79,7009.69 4059.79,7033.41 4012.36,7033.41 4012.36,7057.13 3964.93,7057.13 3964.93,7080.83 3941.21,7080.83 3941.21,7104.55 3893.78,7104.55 3893.78,7128.27 3870.06,7128.27 3870.06,7151.99 3775.2,7151.99 3775.2,7175.71 3751.48,7175.71 3751.48,7199.44 3727.76,7199.44 3727.76,7223.14 3680.33,7223.14 3680.33,7246.85 3632.9,7246.85 3632.9,7294.29 3561.75,7294.29 3561.75,7318.01 3514.32,7318.01 3514.32,7341.73 3466.88,7341.73 3466.88,7365.43 3443.16,7365.43 3443.16,7389.15 3395.73,7389.15 3395.73,7412.87 3348.3,7412.87 3348.3,7436.59 3300.86,7436.59 3300.86,7460.31 3277.15,7460.31 3277.15,7484.02 3229.72,7484.02 3229.72,7507.73 3206,7507.73 3206,7531.45 3134.85,7531.45 3134.85,7555.17 3111.14,7555.17 3111.14,7578.89 3063.7,7578.89 3063.7,7602.62 3039.98,7602.62 3039.98,7626.32 2968.84,7626.32 2968.84,7650.03 2945.12,7650.03 2945.12,7673.75 2873.96,7673.75 2873.96,7697.47 2850.25,7697.47 2850.25,7721.19 2802.82,7721.19 2802.82,7744.91 2755.38,7744.91 2755.38,7768.62 2707.96,7768.62 2707.96,7792.33 2684.24,7792.33 2684.24,7816.05 2636.8,7816.05 2636.8,7839.77 2589.37,7839.77 2589.37,7863.49 2541.94,7863.49 2541.94,7887.2 2518.22,7887.2 2518.22,7910.91 2470.78,7910.91 2470.78,7934.63 2423.36,7934.63 2423.36,7958.35 2375.92,7958.35 2375.92,7982.07 2352.2,7982.07 2352.2,8005.78 2304.78,8005.78 2304.78,8029.5 2257.34,8029.5 2257.34,8053.21 2209.9,8053.21 2209.9,8076.93 2186.19,8076.93 2186.19,8100.65 2115.04,8100.65 2115.04,8148.09 2020.18,8148.09 2020.18,8171.8 1996.46,8171.8 1996.46,8195.51 1972.74,8195.51 1972.74,8219.23 1949.02,8219.23 1949.02,8242.95 1877.88,8242.95 1877.88,8266.67 1854.16,8266.67 1854.16,8290.38 1783.01,8290.38 1783.01,8314.1 1759.29,8314.1 1759.29,8337.81 1711.86,8337.81 1711.86,8361.53 1664.42,8361.53 1664.42,8385.25 1616.99,8385.25 1616.99,8432.68 1545.84,8432.68 1545.84,8456.4 1522.12,8456.4 1522.12,8480.11 1474.69,8480.11 1474.69,11800.43 1522.12,11800.43 1522.12,11824.15 1545.84,11824.15 1545.84,11847.87 1616.99,11847.87 1616.99,11895.3 1664.42,11895.3 1664.42,11919.01 1688.14,11919.01 1688.14,11942.73 1783.01,11942.73 1783.01,11966.45 1806.72,11966.45 1806.72,11990.17 1830.44,11990.17 1830.44,12013.89 1877.88,12013.89 1877.88,12037.59 1949.02,12037.59 1949.02,12061.31 1972.74,12061.31 1972.74,12085.03 2020.18,12085.03 2020.18,12108.75 2043.89,12108.75 2043.89,12132.47 2091.32,12132.47 2091.32,12156.17 2115.04,12156.17 2115.04,12179.89 2186.19,12179.89 2186.19,12203.61 2209.9,12203.61 2209.9,12227.33 2281.06,12227.33 2281.06,12251.05 2304.78,12251.05 2304.78,12274.76 2328.48,12274.76 2328.48,12298.48 2352.2,12298.48 2352.2,12322.19 2423.36,12322.19 2423.36,12345.91 2447.07,12345.91 2447.07,12369.63 2518.22,12369.63 2518.22,12393.35 2541.94,12393.35 2541.94,12417.07 2589.37,12417.07 2589.37,12440.77 2613.08,12440.77 2613.08,12464.49 2684.24,12464.49 2684.24,12511.93 2755.38,12511.93 2755.38,12535.65 2779.1,12535.65 2779.1,12559.35 2850.25,12559.35 2850.25,12606.79 2921.4,12606.79 2921.4,12630.51 2968.84,12630.51 2968.84,12654.23 3016.26,12654.23 3016.26,12677.94 3039.98,12677.94 3039.98,12701.66 3087.42,12701.66 3087.42,12725.37 3111.14,12725.37 3111.14,12749.09 3206,12749.09 3206,12772.81 3229.72,12772.81 3229.72,12796.53 3253.43,12796.53 3253.43,12820.25 3300.86,12820.25 3300.86,12843.95 3372.02,12843.95 3372.02,12867.67 3395.73,12867.67 3395.73,12891.39 3443.16,12891.39 3443.16,12915.11 3466.88,12915.11 3466.88,12938.84 3538.03,12938.84 3538.03,12986.25 3609.18,12986.25 3609.18,13009.97 3632.9,13009.97 3632.9,13033.69 3680.33,13033.69 3680.33,13057.41 3727.76,13057.41 3727.76,13081.12 3751.48,13081.12 3751.48,13104.84 3775.2,13104.84 3775.2,13128.55 3870.06,13128.55 3870.06,13175.99 3964.93,13175.99 3964.93,13223.43 4012.36,13223.43 4012.36,13247.14 4036.08,13247.14 4036.08,13270.85 4107.23,13270.85 4107.23,13294.57 4154.66,13294.57 4154.66,13318.29 4202.09,13318.29 4202.09,13342.02 4225.81,13342.02 4225.81,13365.72 4273.25,13365.72 4273.25,13389.44 4296.96,13389.44 4296.96,13413.15 4344.39,13413.15 4344.39,13436.87 4391.83,13436.87 4391.83,13460.59 4439.26,13460.59 4439.26,13436.87 4462.97,13436.87 4462.97,13413.15 4510.41,13413.15 4510.41,13389.44 4557.84,13389.44 4557.84,13365.72 4628.99,13365.72 4628.99,13342.02 4652.71,13342.02 4652.71,13318.29 4676.43,13318.29 4676.43,13294.57 4723.86,13294.57 4723.86,13270.85 4771.29,13270.85 4771.29,13247.14 4795.01,13247.14 4795.01,13223.43 4842.44,13223.43 4842.44,13199.71 4889.87,13199.71 4889.87,13175.99 4961.03,13175.99 4961.03,13152.27 4984.74,13152.27 4984.74,13128.55 5008.45,13128.55 5008.45,13104.84 5055.89,13104.84 5055.89,13081.12 5127.04,13081.12 5127.04,13033.69 5198.19,13033.69 5198.19,13009.97 5221.91,13009.97 5221.91,12986.25 5269.33,12986.25 5269.33,12962.54 5293.05,12962.54 5293.05,12938.84 5340.49,12938.84 5340.49,12915.11 5364.21,12915.11 5364.21,12891.39 5435.35,12891.39 5435.35,12867.67 5482.79,12867.67 5482.79,12843.95 5530.22,12843.95 5530.22,12820.25 5553.93,12820.25 5553.93,12796.53 5601.37,12796.53 5601.37,12772.81 5648.81,12772.81 5648.81,12749.09 5672.52,12749.09 5672.52,12725.37 5719.95,12725.37 5719.95,12701.66 5767.39,12701.66 5767.39,12677.94 5814.82,12677.94 5814.82,12654.23 5838.53,12654.23 5838.53,12630.51 5885.97,12630.51 5885.97,12606.79 5933.4,12606.79 5933.4,12583.07 5980.83,12583.07 5980.83,12559.35 6051.99,12559.35 6051.99,12535.65 6075.7,12535.65 6075.7,12511.93 6099.42,12511.93 6099.42,12488.21 6123.13,12488.21 6123.13,12464.49 6194.28,12464.49 6194.28,12440.77 6241.72,12440.77 6241.72,12417.07 6289.15,12417.07 6289.15,12393.35 6312.87,12393.35 6312.87,12369.63 6360.3,12369.63 6360.3,12345.91 6384.01,12345.91 6384.01,12322.19 6455.17,12322.19 6455.17,12298.48 6478.88,12298.48 6478.88,12274.76 6550.03,12274.76 6550.03,12251.05 6573.75,12251.05 6573.75,12227.33 6597.46,12227.33 6597.46,12203.61 6621.18,12203.61 6621.18,12179.89 6692.33,12179.89 6692.33,12156.17 6716.05,12156.17 6716.05,12132.47 6787.2,12132.47 6787.2,12108.75 6810.91,12108.75 6810.91,12085.03 6882.06,12085.03 6882.06,12061.31 6905.78,12061.31 6905.78,12037.59 6953.21,12037.59 6953.21,12013.89 6976.93,12013.89 6976.93,11990.17 7048.08,11990.17 7048.08,11942.73 7119.23,11942.73 7119.23,11919.01 7142.94,11919.01 7142.94,11895.3 7214.1,11895.3 7214.1,11871.58 7237.81,11871.58 7237.81,11847.87 7308.96,11847.87 7308.96,11824.15 7332.68,11824.15 7332.68,8480.11 7308.96,8480.11 7308.96,8456.4 7261.53,8456.4 7261.53,8432.68 7237.81,8432.68 7237.81,8408.96 7214.1,8408.96 7214.1,8385.25 7166.66,8385.25 7166.66,8361.53 7119.23,8361.53 7119.23,8337.81 7048.08,8337.81 7048.08,8290.38 6953.21,8290.38 6953.21,8266.67 6929.5,8266.67 6929.5,8242.95 6905.78,8242.95 6905.78,8219.23 6858.35,8219.23 6858.35,8195.51 6787.2,8195.51 6787.2,8171.8 6763.48,8171.8 6763.48,8148.09 6739.76,8148.09 6739.76,8124.37 6692.33,8124.37 6692.33,8100.65 6644.9,8100.65 6644.9,8076.93 6597.46,8076.93 6597.46,8053.21 6550.03,8053.21 6550.03,8029.5 6526.31,8029.5 6526.31,8005.78 6478.88,8005.78 6478.88,7982.07 6455.17,7982.07 6455.17,7958.35 6407.73,7958.35 6407.73,7934.63 6384.01,7934.63 6384.01,7910.91 6312.87,7910.91 6312.87,7887.2 6289.15,7887.2 6289.15,7863.49 6218,7863.49 6218,7816.05 6123.13,7816.05 6123.13,7792.33 6099.42,7792.33 6099.42,7768.62 6051.99,7768.62 6051.99,7744.91 6028.27,7744.91 6028.27,7721.19 5980.83,7721.19 5980.83,7697.47 5933.4,7697.47 5933.4,7673.75 5862.25,7673.75 5862.25,7650.03 5838.53,7650.03 5838.53,7626.32 5814.82,7626.32 5814.82,7602.62 5767.39,7602.62 5767.39,7578.89 5719.95,7578.89 5719.95,7555.17 5696.23,7555.17 5696.23,7531.45 5625.09,7531.45 5625.09,7507.73 5601.37,7507.73 5601.37,7484.02 5553.93,7484.02 5553.93,7460.31 5530.22,7460.31 5530.22,7436.59 5482.79,7436.59 5482.79,7412.87 5459.07,7412.87 5459.07,7389.15 5364.21,7389.15 5364.21,7365.43 5340.49,7365.43 5340.49,7341.73 5293.05,7341.73 5293.05,7318.01 5269.33,7318.01 5269.33,7294.29 5221.91,7294.29 5221.91,7270.57 5198.19,7270.57 5198.19,7246.85 5103.33,7246.85 5103.33,7199.44 5055.89,7199.44 5055.89,7175.71 5008.45,7175.71 5008.45,7151.99 4961.03,7151.99 4961.03,7128.27 4937.31,7128.27 4937.31,7104.55 4889.87,7104.55 4889.87,7080.83 4866.15,7080.83 4866.15,7057.13 4795.01,7057.13 4795.01,7033.41 4771.29,7033.41 4771.29,7009.69 4723.86,7009.69 4723.86,6985.97 4700.14,6985.97 4700.14,6962.25 4628.99,6962.25 4628.99,6938.55 4581.56,6938.55 4581.56,6914.83 4534.13,6914.83 4534.13,6891.11 4510.41,6891.11 4510.41,6867.39 4462.97,6867.39 4462.97,6843.67 4368.11,6843.67 "/>
    <path class="fil6" d="M5964.21 15564.88l75.05 -6.75c3.52,30.36 11.81,55.24 24.88,74.77 13.07,19.4 33.31,35.14 60.71,47.22 27.41,11.95 58.33,17.99 92.62,17.99 30.5,0 57.34,-4.49 80.68,-13.63 23.33,-9.13 40.61,-21.64 52,-37.52 11.38,-15.89 17.14,-33.17 17.14,-51.72 0,-18.84 -5.48,-35.28 -16.44,-49.48 -10.96,-14.05 -29.09,-25.86 -54.39,-35.55 -16.16,-6.19 -52,-16.03 -107.52,-29.38 -55.51,-13.35 -94.3,-25.86 -116.51,-37.66 -28.81,-15.18 -50.17,-34.02 -64.23,-56.36 -14.19,-22.35 -21.22,-47.51 -21.22,-75.19 0,-30.64 8.71,-59.17 26,-85.6 17.29,-26.56 42.44,-46.66 75.75,-60.43 33.17,-13.77 70.14,-20.66 110.75,-20.66 44.7,0 84.19,7.17 118.34,21.64 34.15,14.34 60.44,35.56 78.85,63.67 18.41,27.97 28.25,59.73 29.65,95.15l-76.74 5.9c-4.07,-38.09 -17.98,-66.9 -41.74,-86.29 -23.75,-19.54 -58.89,-29.24 -105.27,-29.24 -48.34,0 -83.62,8.86 -105.69,26.57 -22.06,17.71 -33.16,39.07 -33.16,64.09 0,21.64 7.87,39.49 23.47,53.54 15.46,13.92 55.51,28.39 120.44,43.01 64.94,14.76 109.49,27.55 133.66,38.51 35,16.16 61,36.54 77.72,61.42 16.73,24.73 25.02,53.26 25.02,85.59 0,32.18 -9.13,62.26 -27.55,90.65 -18.41,28.39 -44.69,50.46 -79.12,66.2 -34.44,15.74 -73.09,23.61 -116.23,23.61 -54.53,0 -100.21,-8.01 -137.03,-23.89 -36.97,-15.88 -65.78,-39.78 -86.72,-71.82 -21.08,-31.91 -32.05,-68.03 -33.17,-108.36zm551.5 -24.88c0,-80.81 22.49,-140.68 67.6,-179.62 37.53,-32.32 83.48,-48.48 137.59,-48.48 60.02,0 109.21,19.67 147.44,59.03 38.08,39.21 57.2,93.6 57.2,162.89 0,56.22 -8.44,100.35 -25.3,132.53 -16.87,32.19 -41.46,57.2 -73.79,75.05 -32.18,17.85 -67.46,26.71 -105.55,26.71 -61.27,0 -110.75,-19.54 -148.55,-58.75 -37.81,-39.21 -56.64,-95.71 -56.64,-169.36zm75.89 0.14c0,55.94 12.23,97.82 36.68,125.51 24.6,27.83 55.38,41.74 92.62,41.74 36.83,0 67.47,-13.91 92.06,-41.88 24.46,-27.97 36.68,-70.56 36.68,-127.76 0,-53.97 -12.37,-94.87 -36.96,-122.55 -24.6,-27.83 -55.23,-41.74 -91.78,-41.74 -37.24,0 -68.02,13.77 -92.62,41.46 -24.45,27.68 -36.68,69.43 -36.68,125.22zm420.94 386.5l0 -605.47 67.46 0 0 57.49c15.88,-22.21 33.87,-38.94 53.97,-50.04 19.95,-11.1 44.27,-16.72 72.8,-16.72 37.38,0 70.27,9.55 98.8,28.81 28.53,19.11 50.04,46.24 64.65,81.09 14.48,35 21.79,73.23 21.79,114.97 0,44.55 -8.01,84.75 -24.04,120.59 -16.02,35.69 -39.35,63.1 -69.99,82.22 -30.5,18.97 -62.68,28.53 -96.41,28.53 -24.74,0 -46.94,-5.2 -66.48,-15.6 -19.68,-10.4 -35.7,-23.48 -48.35,-39.36l0 213.49 -74.2 0zm67.46 -383.97c0,56.08 11.38,97.54 34.01,124.38 22.77,26.85 50.31,40.34 82.64,40.34 32.89,0 61,-13.91 84.33,-41.74 23.47,-27.83 35.13,-70.84 35.13,-129.16 0,-55.66 -11.38,-97.26 -34.29,-124.95 -22.91,-27.68 -50.17,-41.46 -81.94,-41.46 -31.48,0 -59.31,14.76 -83.48,44.13 -24.32,29.52 -36.4,72.24 -36.4,128.46zm373.71 -2.67c0,-80.81 22.49,-140.68 67.6,-179.62 37.53,-32.32 83.48,-48.48 137.59,-48.48 60.02,0 109.21,19.67 147.44,59.03 38.08,39.21 57.2,93.6 57.2,162.89 0,56.22 -8.44,100.35 -25.3,132.53 -16.87,32.19 -41.46,57.2 -73.79,75.05 -32.18,17.85 -67.46,26.71 -105.55,26.71 -61.27,0 -110.75,-19.54 -148.55,-58.75 -37.81,-39.21 -56.64,-95.71 -56.64,-169.36zm75.89 0.14c0,55.94 12.23,97.82 36.68,125.51 24.6,27.83 55.38,41.74 92.62,41.74 36.83,0 67.47,-13.91 92.06,-41.88 24.46,-27.97 36.68,-70.56 36.68,-127.76 0,-53.97 -12.37,-94.87 -36.96,-122.55 -24.6,-27.83 -55.23,-41.74 -91.78,-41.74 -37.24,0 -68.02,13.77 -92.62,41.46 -24.45,27.68 -36.68,69.43 -36.68,125.22zm420.09 218.69l0 -437.66 66.62 0 0 67.04c17.01,-31.06 32.75,-51.58 47.22,-61.42 14.48,-9.97 30.36,-14.89 47.65,-14.89 25.02,0 50.45,7.87 76.31,23.47l-26.42 68.44c-17.99,-10.12 -35.98,-15.18 -53.97,-15.18 -16.16,0 -30.64,4.92 -43.43,14.62 -12.79,9.7 -21.92,23.19 -27.4,40.48 -8.29,26.28 -12.37,55.09 -12.37,86.43l0 228.67 -74.21 0zm442.72 -66.2l10.12 65.5c-20.8,4.35 -39.49,6.6 -55.8,6.6 -26.84,0 -47.64,-4.21 -62.54,-12.79 -14.76,-8.57 -25.16,-19.67 -31.2,-33.59 -6.04,-13.91 -9,-43.14 -9,-87.7l0 -252.13 -54.81 0 0 -57.35 54.81 0 0 -108.22 74.21 -44.55 0 152.77 74.21 0 0 57.35 -74.21 0 0 256.35c0,21.22 1.27,34.85 3.94,40.9 2.53,6.04 6.74,10.82 12.65,14.47 5.9,3.52 14.33,5.34 25.3,5.34 8.15,0 18.97,-0.98 32.32,-2.95zm371.74 -75.47l76.74 10.12c-11.95,44.55 -34.29,79.27 -66.9,103.86 -32.6,24.6 -74.21,36.97 -124.94,36.97 -63.81,0 -114.41,-19.68 -151.79,-59.03 -37.39,-39.21 -56.08,-94.45 -56.08,-165.42 0,-73.37 18.83,-130.43 56.64,-170.91 37.81,-40.61 86.86,-60.85 147.15,-60.85 58.33,0 105.97,19.81 142.94,59.59 36.96,39.77 55.51,95.71 55.51,167.81 0,4.36 -0.14,10.96 -0.42,19.68l-325.92 0c2.81,47.92 16.3,84.74 40.75,110.18 24.32,25.44 54.82,38.23 91.22,38.23 27.12,0 50.31,-7.17 69.43,-21.5 19.25,-14.34 34.43,-37.25 45.67,-68.73zm-242.86 -118.9l243.71 0c-3.24,-36.82 -12.65,-64.37 -27.97,-82.78 -23.47,-28.53 -54.11,-42.87 -91.64,-42.87 -34.01,0 -62.54,11.39 -85.73,34.15 -23.05,22.77 -35.84,53.27 -38.37,91.5z"/>
    <path class="fil6" d="M11820.07 15811.01l0 -603.78 407.3 0 0 70.83 -327.19 0 0 188.05 283.34 0 0 70.84 -283.34 0 0 274.06 -80.11 0zm473.78 -218.83c0,-80.81 22.49,-140.68 67.6,-179.62 37.53,-32.32 83.48,-48.48 137.59,-48.48 60.02,0 109.21,19.67 147.44,59.03 38.08,39.21 57.2,93.6 57.2,162.89 0,56.22 -8.44,100.35 -25.3,132.53 -16.87,32.19 -41.46,57.2 -73.79,75.05 -32.18,17.85 -67.46,26.71 -105.55,26.71 -61.27,0 -110.75,-19.54 -148.55,-58.75 -37.81,-39.21 -56.64,-95.71 -56.64,-169.36zm75.89 0.14c0,55.94 12.23,97.82 36.68,125.51 24.6,27.83 55.38,41.74 92.62,41.74 36.83,0 67.47,-13.91 92.06,-41.88 24.46,-27.97 36.68,-70.56 36.68,-127.76 0,-53.97 -12.37,-94.87 -36.96,-122.55 -24.6,-27.83 -55.23,-41.74 -91.78,-41.74 -37.24,0 -68.02,13.77 -92.62,41.46 -24.45,27.68 -36.68,69.43 -36.68,125.22zm420.09 218.69l0 -437.66 66.62 0 0 67.04c17.01,-31.06 32.75,-51.58 47.22,-61.42 14.48,-9.97 30.36,-14.89 47.65,-14.89 25.02,0 50.45,7.87 76.31,23.47l-26.42 68.44c-17.99,-10.12 -35.98,-15.18 -53.97,-15.18 -16.16,0 -30.64,4.92 -43.43,14.62 -12.79,9.7 -21.92,23.19 -27.4,40.48 -8.29,26.28 -12.37,55.09 -12.37,86.43l0 228.67 -74.21 0zm281.66 0l0 -437.66 66.61 0 0 61.84c13.64,-21.36 31.91,-38.65 54.68,-51.58 22.76,-13.07 48.62,-19.53 77.72,-19.53 32.32,0 58.89,6.74 79.55,20.09 20.66,13.5 35.27,32.19 43.71,56.36 34.85,-51.01 79.97,-76.45 135.62,-76.45 43.57,0 77.16,11.94 100.49,35.98 23.47,24.03 35.28,60.99 35.28,110.89l0 300.06 -74.21 0 0 -275.47c0,-29.51 -2.53,-50.88 -7.31,-63.95 -4.78,-13.07 -13.49,-23.47 -26.28,-31.48 -12.65,-8.01 -27.55,-11.94 -44.55,-11.94 -30.92,0 -56.5,10.26 -76.88,30.63 -20.38,20.52 -30.5,53.27 -30.5,98.25l0 253.96 -74.21 0 0 -284.04c0,-32.89 -6.04,-57.62 -18.13,-74.07 -12.08,-16.44 -31.9,-24.73 -59.31,-24.73 -20.8,0 -40.05,5.48 -57.76,16.44 -17.71,10.96 -30.5,26.98 -38.51,48.21 -7.87,21.08 -11.81,51.58 -11.81,91.35l0 226.84 -74.2 0zm988.3 -54.81c-27.54,23.47 -54.11,39.91 -79.54,49.61 -25.44,9.7 -52.71,14.48 -81.94,14.48 -48.07,0 -85.03,-11.67 -110.89,-35.14 -25.86,-23.33 -38.79,-53.27 -38.79,-89.67 0,-21.36 4.92,-40.9 14.61,-58.61 9.84,-17.7 22.63,-31.76 38.37,-42.44 15.88,-10.68 33.59,-18.83 53.41,-24.31 14.62,-3.8 36.68,-7.45 66.06,-11.11 59.87,-7.02 104.14,-15.6 132.39,-25.44 0.28,-10.12 0.42,-16.58 0.42,-19.25 0,-30.08 -7.03,-51.3 -21.08,-63.67 -18.97,-16.72 -47.22,-25.01 -84.61,-25.01 -34.99,0 -60.85,6.18 -77.44,18.41 -16.72,12.22 -28.95,33.87 -36.96,65.07l-72.52 -10.12c6.6,-31.06 17.42,-56.22 32.6,-75.33 15.18,-19.12 37.11,-33.73 65.78,-44.13 28.53,-10.26 61.84,-15.46 99.5,-15.46 37.39,0 67.89,4.35 91.36,13.21 23.33,8.85 40.62,19.81 51.58,33.17 10.96,13.35 18.69,30.21 23.19,50.59 2.39,12.65 3.65,35.42 3.65,68.17l0 98.38c0,68.73 1.55,112.15 4.64,130.57 2.95,18.41 9.14,35.97 18.13,52.84l-77.58 0c-7.45,-15.6 -12.23,-33.87 -14.34,-54.81zm-5.9 -164.44c-26.98,10.96 -67.46,20.24 -121.43,27.83 -30.64,4.35 -52.28,9.27 -64.93,14.75 -12.65,5.49 -22.35,13.5 -29.23,23.9 -6.89,10.54 -10.4,22.2 -10.4,35.13 0,19.54 7.44,35.98 22.48,49.05 15.04,13.07 36.97,19.68 65.78,19.68 28.53,0 53.97,-6.18 76.31,-18.69 22.21,-12.37 38.65,-29.38 49.05,-50.88 8.01,-16.72 11.95,-41.32 11.95,-73.79l0.42 -26.98zm474.9 59.03l72.53 10.12c-8.02,49.89 -28.25,88.82 -61,117.07 -32.75,28.25 -73.08,42.31 -120.73,42.31 -59.73,0 -107.8,-19.54 -144.06,-58.61 -36.4,-39.07 -54.53,-95.01 -54.53,-167.81 0,-47.23 7.87,-88.4 23.47,-123.82 15.6,-35.28 39.35,-61.84 71.4,-79.41 31.9,-17.71 66.62,-26.56 104.28,-26.56 47.37,0 86.3,11.94 116.37,35.98 30.22,24.03 49.62,58.18 58.05,102.31l-71.68 10.97c-6.89,-29.38 -18.97,-51.44 -36.54,-66.34 -17.43,-14.76 -38.51,-22.21 -63.25,-22.21 -37.38,0 -67.74,13.35 -91.21,40.06 -23.33,26.84 -34.99,69.01 -34.99,126.91 0,58.75 11.24,101.33 33.73,127.9 22.62,26.56 52,39.91 88.12,39.91 29.23,0 53.55,-8.85 72.94,-26.7 19.54,-17.71 31.9,-45.12 37.1,-82.08zm135.77 -359.23l0 -84.33 74.2 0 0 84.33 -74.2 0zm0 519.45l0 -437.66 74.2 0 0 437.66 -74.2 0zm159.52 -218.83c0,-80.81 22.49,-140.68 67.6,-179.62 37.53,-32.32 83.48,-48.48 137.59,-48.48 60.02,0 109.21,19.67 147.44,59.03 38.08,39.21 57.2,93.6 57.2,162.89 0,56.22 -8.44,100.35 -25.3,132.53 -16.87,32.19 -41.46,57.2 -73.79,75.05 -32.18,17.85 -67.46,26.71 -105.55,26.71 -61.27,0 -110.75,-19.54 -148.55,-58.75 -37.81,-39.21 -56.64,-95.71 -56.64,-169.36zm75.89 0.14c0,55.94 12.23,97.82 36.68,125.51 24.6,27.83 55.38,41.74 92.62,41.74 36.83,0 67.47,-13.91 92.06,-41.88 24.46,-27.97 36.68,-70.56 36.68,-127.76 0,-53.97 -12.37,-94.87 -36.96,-122.55 -24.6,-27.83 -55.23,-41.74 -91.78,-41.74 -37.24,0 -68.02,13.77 -92.62,41.46 -24.45,27.68 -36.68,69.43 -36.68,125.22zm67.46 -272.94l53.97 -115.52 97.82 0 -90.23 115.52 -61.56 0zm353.48 491.63l0 -437.66 66.61 0 0 62.12c32.05,-47.64 78.43,-71.39 139,-71.39 26.43,0 50.6,4.78 72.66,14.19 22.07,9.42 38.65,21.93 49.62,37.25 10.96,15.32 18.69,33.59 23.05,54.67 2.67,13.77 4.07,37.8 4.07,72.1l0 268.72 -74.21 0 0 -265.91c0,-30.22 -2.81,-52.85 -8.57,-67.74 -5.76,-14.9 -16.02,-26.85 -30.64,-35.84 -14.61,-8.86 -31.9,-13.35 -51.58,-13.35 -31.48,0 -58.6,9.97 -81.51,30.07 -22.91,19.96 -34.3,58.05 -34.3,113.98l0 238.79 -74.2 0z"/>
    <path class="fil6" d="M15148.81 10379.92l231.61 -603.78 87.84 0 245.82 603.78 -90.94 0 -69.85 -182.99 -254.24 0 -65.5 182.99 -84.74 0zm173.71 -247.92l205.76 0 -62.97 -167.39c-18.97,-50.88 -33.31,-92.9 -43.29,-126.07 -8.29,39.35 -19.39,78 -33.3,116.23l-66.2 177.23zm416.15 117.21l73.37 -11.8c4.07,29.37 15.6,51.86 34.43,67.6 18.83,15.6 45.25,23.47 78.99,23.47 34.15,0 59.45,-6.89 76.03,-20.8 16.44,-13.77 24.74,-30.08 24.74,-48.77 0,-16.72 -7.45,-29.94 -22.21,-39.49 -10.4,-6.61 -35.7,-14.9 -75.89,-25.16 -54.25,-13.63 -91.78,-25.44 -112.86,-35.42 -20.94,-10.12 -36.82,-23.89 -47.65,-41.6 -10.82,-17.57 -16.3,-37.1 -16.3,-58.47 0,-19.53 4.5,-37.52 13.35,-54.11 9,-16.58 21.08,-30.35 36.4,-41.32 11.53,-8.43 27.27,-15.6 47.09,-21.5 19.95,-5.9 41.18,-8.85 63.94,-8.85 34.3,0 64.37,4.92 90.23,14.89 26,9.84 45.12,23.34 57.49,40.2 12.22,17.01 20.8,39.63 25.44,68.02l-72.53 10.12c-3.23,-22.76 -12.79,-40.61 -28.53,-53.4 -15.74,-12.79 -37.94,-19.12 -66.76,-19.12 -33.87,0 -58.18,5.62 -72.66,16.87 -14.47,11.24 -21.78,24.45 -21.78,39.49 0,9.56 2.95,18.27 8.99,26 6.05,7.87 15.46,14.48 28.39,19.68 7.45,2.81 29.1,9.13 65.36,18.97 52.28,13.92 88.82,25.44 109.62,34.29 20.8,8.86 37.11,21.93 48.91,38.79 11.95,17.01 17.85,38.09 17.85,63.39 0,24.6 -7.17,47.79 -21.64,69.57 -14.48,21.79 -35.28,38.65 -62.41,50.6 -27.26,11.94 -58.04,17.85 -92.33,17.85 -56.78,0 -100.21,-11.81 -130.01,-35.28 -29.79,-23.61 -48.77,-58.47 -57.06,-104.71zm749.66 -10.96l76.74 10.12c-11.95,44.55 -34.29,79.27 -66.9,103.86 -32.6,24.6 -74.21,36.97 -124.94,36.97 -63.81,0 -114.41,-19.68 -151.79,-59.03 -37.39,-39.21 -56.08,-94.45 -56.08,-165.42 0,-73.37 18.83,-130.43 56.64,-170.91 37.81,-40.61 86.86,-60.85 147.15,-60.85 58.33,0 105.97,19.81 142.94,59.59 36.96,39.77 55.51,95.71 55.51,167.81 0,4.36 -0.14,10.96 -0.42,19.68l-325.92 0c2.81,47.92 16.3,84.74 40.75,110.18 24.32,25.44 54.82,38.23 91.22,38.23 27.12,0 50.31,-7.17 69.43,-21.5 19.25,-14.34 34.43,-37.25 45.67,-68.73zm-242.86 -118.9l243.71 0c-3.24,-36.82 -12.65,-64.37 -27.97,-82.78 -23.47,-28.53 -54.11,-42.87 -91.64,-42.87 -34.01,0 -62.54,11.39 -85.73,34.15 -23.05,22.77 -35.84,53.27 -38.37,91.5zm383.83 129.86l73.37 -11.8c4.07,29.37 15.6,51.86 34.43,67.6 18.83,15.6 45.25,23.47 78.99,23.47 34.15,0 59.45,-6.89 76.03,-20.8 16.44,-13.77 24.74,-30.08 24.74,-48.77 0,-16.72 -7.45,-29.94 -22.21,-39.49 -10.4,-6.61 -35.7,-14.9 -75.89,-25.16 -54.25,-13.63 -91.78,-25.44 -112.86,-35.42 -20.94,-10.12 -36.82,-23.89 -47.65,-41.6 -10.82,-17.57 -16.3,-37.1 -16.3,-58.47 0,-19.53 4.5,-37.52 13.35,-54.11 9,-16.58 21.08,-30.35 36.4,-41.32 11.53,-8.43 27.27,-15.6 47.09,-21.5 19.95,-5.9 41.18,-8.85 63.94,-8.85 34.3,0 64.37,4.92 90.23,14.89 26,9.84 45.12,23.34 57.49,40.2 12.22,17.01 20.8,39.63 25.44,68.02l-72.53 10.12c-3.23,-22.76 -12.79,-40.61 -28.53,-53.4 -15.74,-12.79 -37.94,-19.12 -66.76,-19.12 -33.87,0 -58.18,5.62 -72.66,16.87 -14.47,11.24 -21.78,24.45 -21.78,39.49 0,9.56 2.95,18.27 8.99,26 6.05,7.87 15.46,14.48 28.39,19.68 7.45,2.81 29.1,9.13 65.36,18.97 52.28,13.92 88.82,25.44 109.62,34.29 20.8,8.86 37.11,21.93 48.91,38.79 11.95,17.01 17.85,38.09 17.85,63.39 0,24.6 -7.17,47.79 -21.64,69.57 -14.48,21.79 -35.28,38.65 -62.41,50.6 -27.26,11.94 -58.04,17.85 -92.33,17.85 -56.78,0 -100.21,-11.81 -130.01,-35.28 -29.79,-23.61 -48.77,-58.47 -57.06,-104.71zm423.32 -88.12c0,-80.81 22.49,-140.68 67.6,-179.62 37.53,-32.32 83.48,-48.48 137.59,-48.48 60.02,0 109.21,19.67 147.44,59.03 38.08,39.21 57.2,93.6 57.2,162.89 0,56.22 -8.44,100.35 -25.3,132.53 -16.87,32.19 -41.46,57.2 -73.79,75.05 -32.18,17.85 -67.46,26.71 -105.55,26.71 -61.27,0 -110.75,-19.54 -148.55,-58.75 -37.81,-39.21 -56.64,-95.71 -56.64,-169.36zm75.89 0.14c0,55.94 12.23,97.82 36.68,125.51 24.6,27.83 55.38,41.74 92.62,41.74 36.83,0 67.47,-13.91 92.06,-41.88 24.46,-27.97 36.68,-70.56 36.68,-127.76 0,-53.97 -12.37,-94.87 -36.96,-122.55 -24.6,-27.83 -55.23,-41.74 -91.78,-41.74 -37.24,0 -68.02,13.77 -92.62,41.46 -24.45,27.68 -36.68,69.43 -36.68,125.22zm420.09 218.69l0 -437.66 66.62 0 0 67.04c17.01,-31.06 32.75,-51.58 47.22,-61.42 14.48,-9.97 30.36,-14.89 47.65,-14.89 25.02,0 50.45,7.87 76.31,23.47l-26.42 68.44c-17.99,-10.12 -35.98,-15.18 -53.97,-15.18 -16.16,0 -30.64,4.92 -43.43,14.62 -12.79,9.7 -21.92,23.19 -27.4,40.48 -8.29,26.28 -12.37,55.09 -12.37,86.43l0 228.67 -74.21 0zm307.8 0l0 -437.66 74.2 0 0 437.66 -74.2 0zm-24.46 -491.63l53.97 -115.52 97.82 0 -90.23 115.52 -61.56 0zm518.47 436.82c-27.54,23.47 -54.11,39.91 -79.54,49.61 -25.44,9.7 -52.71,14.48 -81.94,14.48 -48.07,0 -85.03,-11.67 -110.89,-35.14 -25.86,-23.33 -38.79,-53.27 -38.79,-89.67 0,-21.36 4.92,-40.9 14.61,-58.61 9.84,-17.7 22.63,-31.76 38.37,-42.44 15.88,-10.68 33.59,-18.83 53.41,-24.31 14.62,-3.8 36.68,-7.45 66.06,-11.11 59.87,-7.02 104.14,-15.6 132.39,-25.44 0.28,-10.12 0.42,-16.58 0.42,-19.25 0,-30.08 -7.03,-51.3 -21.08,-63.67 -18.97,-16.72 -47.22,-25.01 -84.61,-25.01 -34.99,0 -60.85,6.18 -77.44,18.41 -16.72,12.22 -28.95,33.87 -36.96,65.07l-72.52 -10.12c6.6,-31.06 17.42,-56.22 32.6,-75.33 15.18,-19.12 37.11,-33.73 65.78,-44.13 28.53,-10.26 61.84,-15.46 99.5,-15.46 37.39,0 67.89,4.35 91.36,13.21 23.33,8.85 40.62,19.81 51.58,33.17 10.96,13.35 18.69,30.21 23.19,50.59 2.39,12.65 3.65,35.42 3.65,68.17l0 98.38c0,68.73 1.55,112.15 4.64,130.57 2.95,18.41 9.14,35.97 18.13,52.84l-77.58 0c-7.45,-15.6 -12.23,-33.87 -14.34,-54.81zm-5.9 -164.44c-26.98,10.96 -67.46,20.24 -121.43,27.83 -30.64,4.35 -52.28,9.27 -64.93,14.75 -12.65,5.49 -22.35,13.5 -29.23,23.9 -6.89,10.54 -10.4,22.2 -10.4,35.13 0,19.54 7.44,35.98 22.48,49.05 15.04,13.07 36.97,19.68 65.78,19.68 28.53,0 53.97,-6.18 76.31,-18.69 22.21,-12.37 38.65,-29.38 49.05,-50.88 8.01,-16.72 11.95,-41.32 11.95,-73.79l0.42 -26.98z"/>
    <path class="fil6" d="M2796.98 10257.11l75.05 -6.75c3.52,30.36 11.81,55.24 24.88,74.77 13.07,19.4 33.31,35.14 60.71,47.22 27.41,11.95 58.33,17.99 92.62,17.99 30.5,0 57.34,-4.49 80.68,-13.63 23.33,-9.13 40.61,-21.64 52,-37.52 11.38,-15.89 17.14,-33.17 17.14,-51.72 0,-18.84 -5.48,-35.28 -16.44,-49.48 -10.96,-14.05 -29.09,-25.86 -54.39,-35.55 -16.16,-6.19 -52,-16.03 -107.52,-29.38 -55.51,-13.35 -94.3,-25.86 -116.51,-37.66 -28.81,-15.18 -50.17,-34.02 -64.23,-56.36 -14.19,-22.35 -21.22,-47.51 -21.22,-75.19 0,-30.64 8.71,-59.17 26,-85.6 17.29,-26.56 42.44,-46.66 75.75,-60.43 33.17,-13.77 70.14,-20.66 110.75,-20.66 44.7,0 84.19,7.17 118.34,21.64 34.15,14.34 60.44,35.56 78.85,63.67 18.41,27.97 28.25,59.73 29.65,95.15l-76.74 5.9c-4.07,-38.09 -17.98,-66.9 -41.74,-86.29 -23.75,-19.54 -58.89,-29.24 -105.27,-29.24 -48.34,0 -83.62,8.86 -105.69,26.57 -22.06,17.71 -33.16,39.07 -33.16,64.09 0,21.64 7.87,39.49 23.47,53.54 15.46,13.92 55.51,28.39 120.44,43.01 64.94,14.76 109.49,27.55 133.66,38.51 35,16.16 61,36.54 77.72,61.42 16.73,24.73 25.02,53.26 25.02,85.59 0,32.18 -9.13,62.26 -27.55,90.65 -18.41,28.39 -44.69,50.46 -79.12,66.2 -34.44,15.74 -73.09,23.61 -116.23,23.61 -54.53,0 -100.21,-8.01 -137.03,-23.89 -36.97,-15.88 -65.78,-39.78 -86.72,-71.82 -21.08,-31.91 -32.05,-68.03 -33.17,-108.36zm551.5 -24.88c0,-80.81 22.49,-140.68 67.6,-179.62 37.53,-32.32 83.48,-48.48 137.59,-48.48 60.02,0 109.21,19.67 147.44,59.03 38.08,39.21 57.2,93.6 57.2,162.89 0,56.22 -8.44,100.35 -25.3,132.53 -16.87,32.19 -41.46,57.2 -73.79,75.05 -32.18,17.85 -67.46,26.71 -105.55,26.71 -61.27,0 -110.75,-19.54 -148.55,-58.75 -37.81,-39.21 -56.64,-95.71 -56.64,-169.36zm75.89 0.14c0,55.94 12.23,97.82 36.68,125.51 24.6,27.83 55.38,41.74 92.62,41.74 36.83,0 67.47,-13.91 92.06,-41.88 24.46,-27.97 36.68,-70.56 36.68,-127.76 0,-53.97 -12.37,-94.87 -36.96,-122.55 -24.6,-27.83 -55.23,-41.74 -91.78,-41.74 -37.24,0 -68.02,13.77 -92.62,41.46 -24.45,27.68 -36.68,69.43 -36.68,125.22zm419.25 218.69l0 -603.78 74.21 0 0 603.78 -74.21 0zm189.04 -519.45l0 -84.33 74.2 0 0 84.33 -74.2 0zm0 519.45l0 -437.66 74.2 0 0 437.66 -74.2 0zm473.21 -160.22l72.53 10.12c-8.02,49.89 -28.25,88.82 -61,117.07 -32.75,28.25 -73.08,42.31 -120.73,42.31 -59.73,0 -107.8,-19.54 -144.06,-58.61 -36.4,-39.07 -54.53,-95.01 -54.53,-167.81 0,-47.23 7.87,-88.4 23.47,-123.82 15.6,-35.28 39.35,-61.84 71.4,-79.41 31.9,-17.71 66.62,-26.56 104.28,-26.56 47.37,0 86.3,11.94 116.37,35.98 30.22,24.03 49.62,58.18 58.05,102.31l-71.68 10.97c-6.89,-29.38 -18.97,-51.44 -36.54,-66.34 -17.43,-14.76 -38.51,-22.21 -63.25,-22.21 -37.38,0 -67.74,13.35 -91.21,40.06 -23.33,26.84 -34.99,69.01 -34.99,126.91 0,58.75 11.24,101.33 33.73,127.9 22.62,26.56 52,39.91 88.12,39.91 29.23,0 53.55,-8.85 72.94,-26.7 19.54,-17.71 31.9,-45.12 37.1,-82.08zm135.77 -359.23l0 -84.33 74.2 0 0 84.33 -74.2 0zm0 519.45l0 -437.66 74.2 0 0 437.66 -74.2 0zm348.41 -66.2l10.12 65.5c-20.8,4.35 -39.49,6.6 -55.8,6.6 -26.84,0 -47.64,-4.21 -62.54,-12.79 -14.76,-8.57 -25.16,-19.67 -31.2,-33.59 -6.04,-13.91 -9,-43.14 -9,-87.7l0 -252.13 -54.81 0 0 -57.35 54.81 0 0 -108.22 74.21 -44.55 0 152.77 74.21 0 0 57.35 -74.21 0 0 256.35c0,21.22 1.27,34.85 3.94,40.9 2.53,6.04 6.74,10.82 12.65,14.47 5.9,3.52 14.33,5.34 25.3,5.34 8.15,0 18.97,-0.98 32.32,-2.95zm359.09 66.2l0 -65.07c-34.01,49.61 -80.11,74.35 -138.43,74.35 -25.72,0 -49.76,-4.92 -72.1,-14.76 -22.35,-9.98 -38.93,-22.35 -49.75,-37.25 -10.83,-15.03 -18.42,-33.3 -22.77,-54.95 -2.95,-14.62 -4.5,-37.66 -4.5,-69.15l0 -270.83 74.21 0 0 242.16c0,38.65 1.54,64.79 4.49,78.14 4.64,19.54 14.48,34.72 29.66,45.82 15.04,11.11 33.59,16.73 55.8,16.73 22.2,0 43,-5.62 62.4,-17.01 19.39,-11.38 33.17,-26.98 41.32,-46.52 8.01,-19.53 12.08,-48.07 12.08,-85.31l0 -234.01 74.21 0 0 437.66 -66.62 0zm465.63 0l0 -55.52c-27.69,43.15 -68.44,64.8 -122.27,64.8 -34.86,0 -66.9,-9.56 -96,-28.82 -29.23,-19.11 -51.86,-45.95 -68.02,-80.25 -16.02,-34.43 -24.03,-73.92 -24.03,-118.62 0,-43.57 7.31,-83.06 21.78,-118.62 14.62,-35.41 36.4,-62.68 65.5,-81.51 28.95,-18.98 61.56,-28.39 97.39,-28.39 26.43,0 49.9,5.62 70.42,16.72 20.52,11.1 37.24,25.72 50.17,43.57l0 -217.14 74.21 0 0 603.78 -69.15 0zm-234.43 -218.27c0,55.94 11.81,97.68 35.56,125.37 23.61,27.69 51.58,41.46 83.76,41.46 32.47,0 60.02,-13.21 82.79,-39.63 22.62,-26.43 34.01,-66.76 34.01,-121.01 0,-59.59 -11.53,-103.44 -34.72,-131.41 -23.05,-27.97 -51.58,-41.88 -85.45,-41.88 -33.03,0 -60.57,13.35 -82.78,40.19 -22.06,26.85 -33.17,69.15 -33.17,126.91z"/>
  </g>
</svg>
