<svg xmlns="http://www.w3.org/2000/svg" viewBox="0 0 613 544" aria-label="Map of Spain">
  <path id="aragon" name="Aragon" d="m 444.20514,66.648576 0.28,0.55 1.87,-0.03 1.43,1.39 1.7,-0.31 2.62,1.83 0,0 0.66,0.13 0,0 0.52,-0.16 0,0 0.32,-0.3 0,0 2.51,0.15 0.76,-0.9 -0.09,-0.49 1.19,-2.2 0.93,-0.93 -0.16,-1.1 0,0 -0.28,0.03 0,0 -0.84,-0.02 -0.39,-1.22 -0.88,-0.73 0.19,-1.99 -0.68,-1.44 0.7,-1.97 -0.2,-0.66 1.89,-2.29 -0.14,-0.6 -0.66,-0.27 0.49,-1.68 1.76,-1.87 -0.33,-1.78 0.64,-1.24 0.96,0.53 0.57,-0.25 0,0 0.14,0 0,0 0.04,-1.07 1.18,-0.79 -0.56,-0.46 0.6,0.02 0.12,-1.36 3.06,0.04 0.01,-1.62 0.38,-0.35 1.54,-0.11 1.26,-1.48 0.61,0.01 0.01,-0.64 0.97,-0.08 0.46,-0.89 -0.33,-0.45 0.11,-1.76 1,-0.79 0.08,-1.26 0.94,-0.71 1.57,0.07 0,0 -0.23,0.85 0.96,0.65 0.5,-0.22 0.56,0.89 1.49,1.08 0.04,0.93 0.9,-0.01 0.03,0.91 0.42,0.16 0.23,-0.56 0.43,-0.02 0.06,-0.65 0.61,-0.61 1.68,1.21 0.86,-0.46 0.7,0.23 1,-1.33 0.59,0.11 0.34,-0.56 1.49,1.06 0.41,-0.08 0.13,0.53 1.38,0.8 0.74,-0.41 1.48,2.86 1.01,0.11 0.19,0.83 1.26,0.37 0.65,-0.16 0.17,-0.44 0.97,0.19 0.74,-0.68 0.98,0.15 1.32,-0.46 0.39,-0.52 2.27,0.78 0.11,0.83 0.83,0.73 0.72,-0.36 0.12,-0.79 0.95,-0.72 1.7,1.23 1.54,-0.34 1.04,0.31 0.29,-0.42 1.61,0.29 0.28,-0.39 1.74,0.53 0,0 0.11,0.26 0,0 0.22,0.14 0,0 0.61,0.82 0.27,1.34 1.68,0.42 -0.69,2.45 0.25,0.38 -0.43,-0.19 -0.36,0.45 -0.04,0.52 0.53,0.28 -0.68,0.66 -0.34,-0.26 -0.3,0.32 1.48,3.7 -0.62,0.69 1.28,0.52 -0.81,0.55 0.65,0.55 -1.68,4.88 -0.12,0.6 0.46,0.32 -0.57,0.48 0.24,1.23 -0.87,2.59 -0.39,0.24 0,1.51 -0.33,0.62 -0.12,-0.39 -0.54,0.18 -0.35,0.99 -0.49,-0.21 -0.67,1.05 1.21,0.66 -0.31,0.07 -0.09,1.14 0.4,0.51 -0.72,0.31 -0.02,0.42 -0.66,-0.03 -0.33,1.15 -0.81,-0.02 -0.83,0.76 -0.42,1.29 -1.87,0.25 -0.09,0.93 -0.31,-0.29 -1.58,2.21 -0.04,0.68 0.87,1.05 -0.21,1.16 1.42,0.24 0.71,-0.33 0.53,2.14 -1.36,1.89 -1.51,0.21 0.34,1.21 -0.94,2.01 1.44,1.51 -0.7,0.89 0.57,0.43 -0.11,0.52 0.59,0.94 -0.21,1.51 -0.39,-0.05 -0.05,0.47 -1.14,0.06 -0.72,2.37 -1.12,0.27 -0.17,0.7 -0.9,-0.26 -0.34,0.4 0.01,1.430004 0.51,0.09 0.3,0.97 -0.34,0.46 0.37,-0.18 -0.01,0.45 0.37,-0.21 0.89,0.72 -0.49,0.19 0.6,1.21 0,0 -0.05,0.28 0,0 0.34,0.22 -1.09,1.82 0,0 0.03,0.2 0,0 -0.39,1.07 1.04,2.23 -1.19,1.21 -0.14,0.7 -1.43,0.44 -0.05,0.48 -0.39,-0.31 0.25,0.57 0,0 -0.62,0.52 -1.06,-0.29 -1.84,1.27 0,0 -0.32,-0.11 0,0 -0.32,-1.01 0,0 -0.01,-0.11 0,0 -0.54,-0.17 0,0 -0.54,0.03 0,0 -1.09,0.09 -1.23,-0.58 -0.97,-0.86 -0.02,-0.62 -1.41,0.05 -0.94,1.54 -0.16,1.77 -1.93,1.1 -0.61,-0.69 -1.33,0.5 0.26,1.87 1.24,0.37 0.84,-0.25 -0.19,3.41 0.65,0.56 0.12,0.8 -1.68,0.68 -0.35,0.54 1.63,1.95 0.15,0.79 -1.59,0.91 -0.74,1.23 -0.63,-0.03 -0.3,0.41 0.47,1.08 -1.18,0.72 -1.8,0.55 -1.39,-0.84 -0.95,4.05 -0.83,0.39 -0.5,0.82 0.36,1.16 -0.44,-0.13 -1.37,1.06 -1.97,-0.06 -0.73,1.84 -1.47,0.59 -0.05,1.89 1.12,1.5 -2.03,1.2 -1.15,-0.87 0.3,-0.63 -0.34,-0.98 0.24,-0.76 -0.44,-0.89 -0.32,0.28 -1.51,-0.85 -2.27,0.08 -0.55,0.38 -0.65,-0.14 -0.22,0.37 -0.47,-0.33 0,0 -0.63,-1.45 0,0 2.22,-0.91 0.33,-0.47 -0.17,-0.69 -1.91,-1.54 -2.65,-0.13 0,-1.02 -0.81,-0.5 -0.44,-1.05 0,0 -0.17,-0.43 0,0 -0.03,-0.32 -0.54,0.46 0.01,1.78 -0.45,0.2 0,0 -0.49,0.43 0,0 -0.62,-0.3 -0.49,0.2 0,0 -0.3,-0.18 0,0 -1.28,-0.18 0,0 0.29,-1.9 -0.96,0.41 -0.95,-0.64 -0.87,0.45 -4.03,-4.27 -0.81,1.16 -0.24,-0.87 0.25,-0.57 0.61,-0.05 -0.66,-0.76 0,0 -0.16,-0.09 0,0 -1.33,-1.68 -0.73,-0.29 0.03,-0.38 0.22,-0.32 0.24,0.22 1.09,-1.92 1.41,-0.79 -0.25,-1.68 0.24,-1.44 0.53,-0.56 2.04,1.05 1.42,-1.22 -0.48,-0.63 0.75,-2.58 -0.66,-1.84 0.54,-0.75 0.07,-1.26 -0.48,-1.24 -0.45,-0.09 -1.3,-1.7 0.34,-1.72 0,0 -0.25,-0.58 0,0 -0.86,-0.76 0,0 -0.31,-0.49 0,0 -3.86,-4.000004 -1.4,-0.47 -1.28,-1.22 0,0 -0.34,0.1 0,0 -1.33,-1.39 -2.54,0.85 0,0 -0.74,-0.9 -1.77,-0.44 -0.79,-3.78 0.55,-1.57 -0.17,-0.74 1.05,-0.61 0.64,-2.69 1.76,0.65 -0.22,1.14 0.4,0.43 2.45,-0.83 0.03,-0.49 -0.46,-0.13 0.05,-1.35 -0.75,-0.89 0.39,-2.15 -0.76,-1.25 0.05,-0.72 1.86,0.03 0.74,-1.27 0,0 0.24,-0.14 0,0 0.37,-0.02 0.43,-0.84 1.38,-0.08 -0.09,-0.85 1,-1.37 -0.91,-0.44 0.12,-0.62 -1.37,-1.29 0.92,-1.37 0.04,-0.96 -1,-1.86 -0.05,-2.3 0,0 z" />
</svg>
