<?xml version="1.0" encoding="UTF-8"?>
<!DOCTYPE svg PUBLIC "-//W3C//DTD SVG 1.1//EN" "http://www.w3.org/Graphics/SVG/1.1/DTD/svg11.dtd">
<!-- Creator: CorelDRAW 2018 (64 Bit) -->
<svg xmlns="http://www.w3.org/2000/svg" version="1.1" style="shape-rendering:geometricPrecision; text-rendering:geometricPrecision; image-rendering:optimizeQuality; fill-rule:evenodd; clip-rule:evenodd" viewBox="0 0 29700 21000" 
  xmlns:xlink="http://www.w3.org/1999/xlink">
  <defs>
    <style type="text/css">
      <![CDATA[
    .fil1 {fill:#2B2A29}
    .fil0 {fill:#DA1F24}
   ]]>
    </style>
  </defs>
  <g id="Capa_x0020_1">
    <metadata id="CorelCorpID_0Corel-Layer"/>
    <g id="_3055626561904">
      <path class="fil0" d="M10370.07 10169.94l12469.45 0 0 -321.29c-131.9,-30.74 -444.45,-244.8 -535.5,-244.8l-8965.76 0c-208.9,0 -1998.71,346.19 -2250.37,396.52 -125.44,25.08 -248.65,50.7 -367.35,76.33l-310 72.5c-46.01,16.31 -24.81,9.87 -40.47,20.74z"/>
      <path class="fil0" d="M7600.78 10720.73c0,54.61 393.24,238.26 458.32,276.09 40.41,23.49 108.14,75.81 168.98,75.81l8751.56 0c85.08,0 197.8,-36.17 281.92,-54.69l862.53 -193.16c115.42,-27.21 1052.08,-226.44 1165.84,-226.44l-11689.15 -15.31 0 137.7z"/>
      <path class="fil1" d="M12741.56 6880.46c0,-265.26 -14.63,-554.07 137.24,-765.46 186.3,-259.32 706.12,-293.16 912.37,52.43 176.1,295.07 225.06,946.87 -6.56,1235.87 -248.93,310.59 -716.95,278.27 -908.76,-29.84 -74.39,-119.47 -134.29,-304.73 -134.29,-493zm1193.4 -948.6c-12.35,-14.2 -13.09,-14.71 -27.18,-34.02 -459.6,-629.91 -1579.32,-401.22 -1579.32,844.92 0,583.37 320.02,1208.7 918,1208.7 550.22,0 544.23,-208.48 719.09,-336.6l0 275.4 367.2 0 0 -3090.59 -397.79 0 0 1132.19z"/>
      <path class="fil0" d="M20146.73 7630.16l-168.3 0c-314.7,0 -448.34,-491.84 -148.54,-653.45 255.58,-137.77 673.99,-96.36 928.84,-218.65 0,133.64 -9.22,242.21 -14.81,352.39 -7.71,152.1 -25.85,176.12 -98.49,268.7 -93.12,118.69 -296.31,251.01 -498.7,251.01zm-780.3 -1315.79l367.2 0c0,-486.75 644.23,-501.39 872.68,-337.18 199.06,143.06 201.57,466.8 0.5,521.84 -268.84,73.61 -745.56,37.11 -1050.7,219.22 -489.22,291.96 -382.13,1233.21 361.12,1233.21 296.23,0 465.75,-32.72 704.11,-213.9 52.78,-40.1 85.35,-87.86 137.39,-122.7 48.9,101.91 83.73,408.47 533.44,303.94 116.14,-26.99 93.86,18.07 93.86,-303.94 -122.15,0 -232.7,52.66 -245.14,-106.78 -26.59,-340.92 47.84,-1223.59 -39.63,-1505.67 -175.45,-565.81 -1168.73,-519.07 -1478.57,-242.68 -154.68,137.96 -251.27,330.9 -256.26,554.64z"/>
      <path class="fil1" d="M8426.98 7630.16c-270.86,0 -459,-15.66 -459,-413.11 0,-402.89 769.66,-307.06 1086.3,-458.99 0,281.14 20.81,475.52 -118.55,631.15 -109.25,122.02 -283.44,240.95 -508.75,240.95zm-856.8 -229.5l0 -146.71c3,-176.71 28.49,-330.41 203.15,-476.35 232.53,-194.27 628.39,-214.9 944.39,-249 195.62,-21.11 336.56,-40.85 336.56,-260.15 0,-504.17 -1011.95,-544.61 -1025.1,45.92l-367.2 0c31.76,-136.37 27.38,-204 86.38,-326.72 276.34,-574.86 1231.44,-486.12 1501.44,-220.71 149.8,147.25 187.15,288.01 186.98,578.01l0.99 1161.8c17.87,167.73 165.22,108.11 243.8,108.11l0 244.79c0,106.93 -602.9,163.58 -611.99,-244.79 -85.89,22.93 -106.69,124.91 -306.82,228.67 -189.64,98.34 -342.19,107.93 -549.99,107.93 -328.02,0 -642.59,-246.6 -642.59,-550.8z"/>
      <path class="fil1" d="M10951.47 5916.57c208,0 386.11,4.49 523.54,210.85 80.18,120.39 134.35,267.33 134.35,462.34l-1239.29 0c3.67,-164.94 79.74,-335.29 170.3,-457.01 79.49,-106.84 229.1,-216.18 411.1,-216.18zm-994.5 887.39c0,147.98 30.73,334.44 64.06,456.13 109.68,400.48 472.3,691.37 899.84,691.37 291.39,0 557.85,-34.96 753.86,-225.33 160.61,-156 243.1,-287.59 301.83,-539.67l-382.5 0c-58.25,250.06 -277.98,428.4 -520.19,428.4 -235.21,0 -398.5,-7.16 -560.1,-220.21 -72.86,-96.03 -143.7,-336.52 -143.7,-498.89l1637.09 0c0,-404.03 -2.53,-657.12 -250.91,-988.38 -279.97,-373.41 -848.92,-433.43 -1228.4,-230.84 -399.87,213.49 -570.88,677.71 -570.88,1127.42z"/>
      <path class="fil1" d="M14852.95 5671.77l0 1438.19c0,246.85 41.92,471.52 157.25,607.74 237.13,280.12 764.87,303.29 1038.68,113.88 89.85,-62.15 166.32,-141.26 230.39,-228.61l27.18 287.29 367.2 0 0 -2264.39 -382.5 0 0 1193.39c0,360.07 -150.16,795.6 -535.5,795.6 -207.75,0 -385.56,-0.69 -472.72,-246.39 -60.59,-170.83 -33.35,-1313.45 -30.86,-1636.83 1.04,-134.26 28.28,-105.77 -353.22,-105.77 -35.25,0 -45.9,10.63 -45.9,45.9z"/>
      <path class="fil1" d="M17086.74 6712.15c0,443.15 79.94,757.59 370.29,1022.03 268.07,244.12 719.7,274.99 1026.76,145.51 309.61,-130.53 503.75,-475.91 530.75,-800.34l-367.2 0c-14.84,30.94 -19.22,64.31 -27.32,95.09 -12.7,48.19 -18.74,60.61 -35.61,102.1 -186.8,459.43 -801.21,434.58 -987.91,58.05 -69.41,-139.98 -120.44,-441.19 -112.56,-591.38 18.43,-350.93 140.18,-841.96 566.7,-841.96 185.2,0 309.95,5.39 448.09,148.62 108.9,112.89 109.46,188.25 148.61,356.3l367.2 0c0,-485.19 -365.49,-841.51 -856.8,-841.51l-91.8 0c-609.09,0 -979.2,528.48 -979.2,1147.49z"/>
      <path class="fil0" d="M15648.55 9129.55l5783.37 0c-107.64,-93.57 -810.29,-306.17 -920.91,-333.69 -670.78,-166.83 -1166.86,-140.61 -1848.37,-140.61 -858.12,0 -2064.01,270.58 -2921.39,444.59l-92.7 29.71z"/>
      <path class="fil0" d="M11043.27 12036.54c924.71,0 1280.67,-23.51 2199.25,-202.85 251.62,-49.13 511.56,-96.03 777.69,-140.29l786.84 -146.46 -5645.68 0 406.59 174.81c279.23,107.17 635.1,206.08 937.6,255.78 159.92,26.29 350.64,59.01 537.71,59.01z"/>
      <path class="fil0" d="M22196.93 5993.06c0,-442.97 86.8,-367.19 -367.2,-367.19l0 2264.39 382.49 0 0 -1208.7c0,-232.12 52.36,-373 152.56,-505.34 125.79,-166.16 327.24,-198.47 551.24,-198.47l0 -397.79c-216.07,-50.33 -373.7,20.08 -526.04,162.47 -88.2,82.42 -104.38,119.01 -167.59,214.9l-25.46 35.73z"/>
      <path class="fil0" d="M7600.78 10169.94l321.3 0c-55.34,-48.1 -217.23,-107.11 -321.3,-107.11l0 107.11z"/>
    </g>
  </g>
</svg>
